<?xml version="1.0" encoding="utf-8"?>
<!-- Generator: Adobe Illustrator 16.0.0, SVG Export Plug-In . SVG Version: 6.00 Build 0)  -->
<!DOCTYPE svg PUBLIC "-//W3C//DTD SVG 1.1 Tiny//EN" "http://www.w3.org/Graphics/SVG/1.1/DTD/svg11-tiny.dtd">
<svg version="1.1" baseProfile="tiny" id="Layer_1" xmlns="http://www.w3.org/2000/svg" xmlns:xlink="http://www.w3.org/1999/xlink"
	 x="0px" y="0px" width="48px" height="24px" viewBox="0 0 48 24" xml:space="preserve">
<g>
	<g>
		<g>
			<polygon fill="none" stroke="#808083" stroke-width="1.4287" points="2.473,4.988 21.527,4.988 21.527,19.012 2.473,19.012 			
				"/>
			<path fill="none" stroke="#808083" stroke-width="1.4287" d="M12,12"/>
		</g>
	</g>
	<g>
		<path fill="none" stroke="#808083" stroke-width="1.4287" d="M2.649,5.166l8.221,8.33c0.609,0.613,1.718,0.607,2.313,0.006
			l8.215-8.269"/>
	</g>
	<g>
		<line fill="none" stroke="#808083" stroke-width="1.4287" x1="2.932" y1="18.551" x2="9.23" y2="12.112"/>
	</g>
	<g>
		<line fill="none" stroke="#808083" stroke-width="1.4287" x1="20.996" y1="18.477" x2="14.867" y2="12.201"/>
	</g>
</g>
<g>
	<g>
		<g>
			<polygon fill="none" stroke="#005CA7" stroke-width="1.4287" points="26.473,4.988 45.527,4.988 45.527,19.012 26.473,19.012 			
				"/>
			<path fill="none" stroke="#005CA7" stroke-width="1.4287" d="M36,12"/>
		</g>
	</g>
	<g>
		<path fill="none" stroke="#005CA7" stroke-width="1.4287" d="M26.648,5.166l8.222,8.33c0.608,0.613,1.718,0.607,2.313,0.006
			l8.215-8.269"/>
	</g>
	<g>
		<line fill="none" stroke="#005CA7" stroke-width="1.4287" x1="26.932" y1="18.551" x2="33.23" y2="12.112"/>
	</g>
	<g>
		<line fill="none" stroke="#005CA7" stroke-width="1.4287" x1="44.996" y1="18.477" x2="38.867" y2="12.201"/>
	</g>
</g>
</svg>
