<svg id="Layer_1" data-name="Layer 1" xmlns="http://www.w3.org/2000/svg" width="48" height="48" viewBox="0 0 48 48"><defs><style>.cls-1{fill:none;}.cls-2{fill:#414141;}</style></defs><title>Artboard 1</title><rect id="Rectangle_724" data-name="Rectangle 724" class="cls-1" width="48" height="48"/><g id="Ellipse_63" data-name="Ellipse 63"><ellipse class="cls-1" cx="24" cy="24" rx="10" ry="16"/><path class="cls-2" d="M24,40c-5.61,0-10-7-10-16S18.39,8,24,8s10,7,10,16S29.61,40,24,40Zm0-30c-4.34,0-8,6.41-8,14s3.66,14,8,14,8-6.41,8-14S28.34,10,24,10Z"/></g><g id="Rectangle_1762" data-name="Rectangle 1762"><rect class="cls-1" x="23" y="8.19" width="2" height="31.81"/><rect class="cls-2" x="23" y="9.28" width="2" height="29.62"/></g><g id="Intersection_13" data-name="Intersection 13"><path class="cls-1" d="M38.2,31.39a16,16,0,0,1-28.4,0c2.67-3.2,8-5.39,14.2-5.39S35.53,28.19,38.2,31.39Z"/><path class="cls-2" d="M24,28a21.45,21.45,0,0,0-7.69,1.36,13.45,13.45,0,0,0-4,2.33,14.1,14.1,0,0,0,4.34,4.22,14,14,0,0,0,14.72,0,14.1,14.1,0,0,0,4.34-4.22,13.45,13.45,0,0,0-4-2.33A21.45,21.45,0,0,0,24,28m0-2c6.17,0,11.53,2.18,14.2,5.38a16,16,0,0,1-28.4,0C12.47,28.18,17.83,26,24,26Z"/></g><g id="Intersection_14" data-name="Intersection 14"><path class="cls-1" d="M9.8,16.61a16,16,0,0,1,28.4,0C35.53,19.81,30.17,22,24,22S12.47,19.81,9.8,16.61Z"/><path class="cls-2" d="M24,20a21.45,21.45,0,0,0,7.69-1.36,13.45,13.45,0,0,0,4-2.33,14.1,14.1,0,0,0-4.34-4.22,14,14,0,0,0-14.72,0,14.1,14.1,0,0,0-4.34,4.22,13.45,13.45,0,0,0,4,2.33A21.45,21.45,0,0,0,24,20m0,2c-6.17,0-11.53-2.18-14.2-5.38a16,16,0,0,1,28.4,0C35.53,19.82,30.17,22,24,22Z"/></g><g id="Path_1210" data-name="Path 1210"><path class="cls-1" d="M24,8A16,16,0,1,1,8,24,16,16,0,0,1,24,8Z"/><path class="cls-2" d="M24,10a14,14,0,1,0,9.9,4.1A13.92,13.92,0,0,0,24,10m0-2A16,16,0,1,1,8,24,16,16,0,0,1,24,8Z"/></g></svg>