<?xml version="1.0" encoding="utf-8"?>
<!-- Generator: Adobe Illustrator 22.0.1, SVG Export Plug-In . SVG Version: 6.00 Build 0)  -->
<svg version="1.1" id="Layer_1" xmlns="http://www.w3.org/2000/svg" xmlns:xlink="http://www.w3.org/1999/xlink" x="0px" y="0px"
	 viewBox="0 0 158.5 70" style="enable-background:new 0 0 158.5 70;" xml:space="preserve">
<style type="text/css">
	.st0{fill:#353F49;}
	.st1{fill:#0677B5;}
	.st2{fill:none;}
</style>
<g>
	<g>
		<path id="XMLID_42_" class="st0" d="M156.8,27.7c1,0,1.7,0.8,1.7,1.8c0,1-0.8,1.8-1.7,1.8c-1,0-1.8-0.8-1.8-1.8
			C155,28.5,155.8,27.7,156.8,27.7L156.8,27.7z M156.7,28c-0.8,0-1.4,0.7-1.4,1.5c0,0.8,0.6,1.5,1.4,1.5c0.8,0,1.4-0.7,1.4-1.5
			C158.2,28.7,157.5,28,156.7,28L156.7,28z M156.4,30.5h-0.3v-2c0.2,0,0.3,0,0.6,0c0.3,0,0.5,0.1,0.6,0.1c0.1,0.1,0.2,0.2,0.2,0.4
			c0,0.3-0.2,0.4-0.4,0.5v0c0.2,0,0.3,0.2,0.3,0.5c0,0.3,0.1,0.4,0.1,0.5h-0.3c0-0.1-0.1-0.2-0.1-0.5c0-0.3-0.2-0.3-0.4-0.3h-0.2
			V30.5z M156.4,29.4h0.2c0.3,0,0.5-0.1,0.5-0.3c0-0.2-0.1-0.3-0.5-0.3c-0.1,0-0.2,0-0.2,0V29.4z"/>
		<path id="XMLID_38_" class="st0" d="M57.9,40.8c-2,0-3.7-1-4.6-2.6v11.2h-3.2V26.8h3.2v2.3c0.9-1.6,2.6-2.7,4.6-2.7
			c4.1,0,6.6,3.4,6.6,7.1C64.5,37.3,61.9,40.8,57.9,40.8z M57.3,29.2c-2.3,0-3.9,2-3.9,4.3c0,2.4,1.5,4.5,3.9,4.5
			c2.3,0,3.9-2,3.9-4.3C61.2,31.2,59.6,29.2,57.3,29.2z"/>
		<path id="XMLID_35_" class="st0" d="M73.4,26.4c4.5,0,6.8,3.4,6.8,7.2c0,0.2,0,0.6,0,0.8H69.7c0,2.4,1.9,3.9,4.3,3.9
			c1.7,0,3.1-0.7,4.2-1.7l1.7,1.7c-1.3,1.1-3,2.4-6.3,2.4c-4.8,0-7.3-3.4-7.3-7.2C66.4,29.8,68.9,26.4,73.4,26.4z M69.7,32.4h7.4
			c-0.2-2-1.7-3.7-3.7-3.7C71.4,28.7,69.9,30.5,69.7,32.4z"/>
		<path id="XMLID_33_" class="st0" d="M85.8,40.2h-3.3V26.8h3.3v1.8c0.7-1.3,2.2-2.2,4-2.2c4,0,5.6,2.6,5.6,6.5v7.3h-3.2v-7.3
			c0-2.7-1.2-3.9-3.2-3.9c-1.7,0-3.2,1.1-3.2,3.7V40.2z"/>
		<path id="XMLID_31_" class="st0" d="M99.2,32.2v-2.7h-1.9v-2.7h1.9v-4.5h3.3v4.5h2.8v2.7h-2.8v2.6c0,4.3,0.2,5.6,1.7,5.6
			c0.3,0,0.6-0.1,0.9-0.1l0.4,2.5c-0.9,0.3-1.7,0.5-2.3,0.5C99.2,40.6,99.2,37.7,99.2,32.2z"/>
		<path id="XMLID_28_" class="st0" d="M113.9,26.4c2.1,0,3.6,1.1,4.6,2.7v-2.3h3.2v13.4h-3.2v-2.1c-0.9,1.6-2.6,2.7-4.6,2.7
			c-4.1,0-6.6-3.4-6.6-7.1C107.3,29.9,109.9,26.4,113.9,26.4z M114.5,37.9c2.3,0,3.9-2,3.9-4.3s-1.6-4.4-3.9-4.4
			c-2.3,0-3.9,2-3.9,4.4C110.6,36,112.2,37.9,114.5,37.9z"/>
		<path id="XMLID_26_" class="st0" d="M127.8,40.2h-3.2V14.9h3.2v13.8c0.7-1.3,2.2-2.2,4-2.2c4,0,5.6,2.6,5.6,6.5v7.3h-3.3v-7.3
			c0-2.7-1.2-3.9-3.1-3.9c-1.8,0-3.2,1.1-3.2,3.7V40.2z"/>
		<path id="XMLID_22_" class="st0" d="M139.4,33.5c0-3.7,2.4-7.1,7.2-7.1c4.8,0,7.2,3.3,7.2,7.1c0,3.8-2.4,7.1-7.2,7.1
			C141.8,40.6,139.4,37.3,139.4,33.5z M150.6,33.5c0-2.8-1.7-4.7-4-4.7c-2.2,0-3.9,1.9-3.9,4.7c0,2.9,1.7,4.8,3.9,4.8
			S150.6,36.4,150.6,33.5z"/>
		<g id="XMLID_19_">
			<path id="XMLID_20_" class="st1" d="M20.5,25.5c-1.5,0-3.1,0.3-4.6,0.8c-3.5,1.5-6.2,4.3-7.6,7.8C6.9,38,7.2,42.5,9.1,46.4
				c3,5.5,8.5,8.8,14.9,8.8c3.1,0,6.2-0.8,9-2.3c4.7-2.8,8-7.3,9.1-12.7c1.2-5.6-0.1-11.6-3.5-16.5c-4.2-5.6-10.7-8.8-17.8-8.8
				c-8,0-15.3,4-19.4,10.7c-0.4,0.7-0.9,1.5-1.2,2.3c0,0.1-0.1,0.5,0,0.7c0.1,0.2,0.4,0.2,0.5,0.2h0c0.3,0,0.7-0.3,1.2-1.1
				c2.5-3.5,5.3-6,8.6-7.7c2.9-1.5,6.2-2.3,9.5-2.3c7.8,0,14.5,4.2,17.5,11.1c1.8,4.3,1.8,9.1,0,13.2c-1.6,3.7-4.7,6.6-8.5,8
				c-1.4,0.5-2.9,0.7-4.4,0.7c-5.8,0-10.5-3.5-11.8-8.8c-0.6-2.8,0.1-5.9,1.8-8c1-1.3,2.8-2.8,5.7-2.8c1.8,0,3.6,0.9,4.6,2.2
				c0.8,1,1,2.1,0.8,3.3c-0.2,0.9-1.1,2-1.9,2c-0.2,0-0.5-0.1-0.6-0.2c-0.2-0.2-0.2-0.4-0.2-0.6c-0.1-0.5-0.2-1.2-1.2-1.6
				c-0.2-0.1-0.4-0.1-0.6-0.1c-1.5,0-2.5,1.4-2.8,2.8c-0.2,1.3,0.2,2.6,1.1,3.6c1.1,1.3,2.9,2,4.8,2c0.2,0,0.3,0,0.5,0
				c2.3-0.3,4.2-1.4,5.5-3.3c1.5-2.2,1.9-5.2,1.2-7.9C29.8,28.5,25.5,25.5,20.5,25.5z"/>
		</g>
	</g>
	<rect class="st2" width="158.2" height="70"/>
</g>
</svg>
