<?xml version="1.0" encoding="utf-8"?>
<!-- Generator: Adobe Illustrator 19.1.1, SVG Export Plug-In . SVG Version: 6.00 Build 0)  -->
<svg version="1.1" id="Layer_1" xmlns="http://www.w3.org/2000/svg" xmlns:xlink="http://www.w3.org/1999/xlink" x="0px" y="0px"
	 width="268px" height="65px" viewBox="0 0 268 65" style="enable-background:new 0 0 268 65;" xml:space="preserve">
<style type="text/css">
	.st0{fill:#343E48;}
	.st1{fill:#005DA6;}
</style>
<g>
	<g>
		<g>
			<path class="st0" d="M252.8,20.7c1.6,0,2.8,1.3,2.8,2.8c0,1.6-1.2,2.9-2.8,2.9c-1.6,0-2.8-1.3-2.8-2.9
				C250,22,251.3,20.7,252.8,20.7L252.8,20.7z M252.8,21.2c-1.3,0-2.3,1.1-2.3,2.4c0,1.4,1,2.4,2.3,2.4c1.3,0,2.3-1.1,2.3-2.4
				C255.1,22.3,254.1,21.2,252.8,21.2L252.8,21.2z M252.3,25.3h-0.5v-3.2c0.3,0,0.5-0.1,0.9-0.1c0.5,0,0.8,0.1,1,0.2
				c0.2,0.1,0.3,0.4,0.3,0.7c0,0.4-0.3,0.7-0.6,0.8v0c0.3,0.1,0.5,0.3,0.5,0.8c0.1,0.5,0.2,0.7,0.2,0.8h-0.5
				c-0.1-0.1-0.2-0.4-0.2-0.8c-0.1-0.4-0.3-0.6-0.7-0.6h-0.4V25.3z M252.3,23.5h0.4c0.4,0,0.8-0.2,0.8-0.5c0-0.3-0.2-0.6-0.8-0.6
				c-0.2,0-0.3,0-0.4,0V23.5z"/>
		</g>
		<path class="st0" d="M93.4,41.8c-3.2,0-5.9-1.7-7.4-4.3v18.1h-5.2V19.3H86V23c1.5-2.6,4.1-4.3,7.4-4.3c6.6,0,10.6,5.5,10.6,11.5
			C104,36.3,99.9,41.8,93.4,41.8z M92.4,23.2c-3.8,0-6.3,3.2-6.4,6.9c0,3.8,2.5,7.2,6.4,7.2c3.8,0,6.4-3.2,6.4-7
			C98.7,26.3,96.1,23.2,92.4,23.2z"/>
		<path class="st0" d="M118.4,18.6c7.3,0,10.9,5.5,10.9,11.6c0,0.3,0,1-0.1,1.3h-16.8c0,3.8,3.1,6.4,7,6.4c2.7,0,5-1.2,6.8-2.7
			l2.7,2.8c-2.2,1.8-4.9,3.9-10.1,3.9c-7.7,0-11.8-5.5-11.8-11.6C107.1,24.2,111.1,18.6,118.4,18.6z M112.4,28.4h12
			c-0.3-3.2-2.7-6-6-6C115.1,22.4,112.7,25.2,112.4,28.4z"/>
		<path class="st0" d="M138.4,40.9h-5.3V19.3h5.3v2.9c1.1-2,3.5-3.6,6.4-3.6c6.4,0,9,4.1,9,10.5v11.8h-5.2V29.1c0-4.4-2-6.2-5.1-6.2
			c-2.8,0-5.1,1.8-5.2,6V40.9z"/>
		<path class="st0" d="M160.1,28v-4.3H157v-4.3h3.1V12h5.3v7.3h4.6v4.3h-4.6v4.2c0,6.9,0.3,9.1,2.8,9.1c0.4,0,1-0.1,1.5-0.2l0.6,4
			c-1.5,0.5-2.7,0.8-3.7,0.8C160.1,41.5,160.1,36.9,160.1,28z"/>
		<path class="st0" d="M183.6,18.6c3.3,0,5.9,1.7,7.4,4.4v-3.7h5.2v21.6h-5.2v-3.4c-1.5,2.6-4.1,4.3-7.4,4.3
			c-6.6,0-10.6-5.5-10.6-11.5C173.1,24.2,177.2,18.6,183.6,18.6z M184.7,37.2c3.8,0,6.3-3.2,6.3-7s-2.5-7.1-6.3-7.1
			c-3.8,0-6.4,3.2-6.4,7.1C178.4,34.2,181,37.2,184.7,37.2z"/>
		<path class="st0" d="M206.1,40.9h-5.2V0.1h5.2v22.2c1.1-2,3.5-3.6,6.4-3.6c6.5,0,9.1,4.1,9.1,10.5v11.8h-5.3V29.1
			c0-4.4-2-6.2-5-6.2c-2.9,0-5.2,1.8-5.2,6V40.9z"/>
		<path class="st0" d="M224.8,30.1c0-6,3.9-11.5,11.6-11.5c7.7,0,11.6,5.3,11.6,11.5s-3.9,11.5-11.6,11.5
			C228.8,41.6,224.8,36.1,224.8,30.1z M242.8,30.1c0-4.6-2.8-7.6-6.4-7.6c-3.6,0-6.4,3.1-6.4,7.6c0,4.7,2.7,7.8,6.4,7.8
			C240,37.9,242.8,34.8,242.8,30.1z"/>
		<g>
			<g>
				<path class="st1" d="M33,17.2c-2.5,0-5,0.5-7.4,1.3c-5.7,2.4-10,6.9-12.2,12.6c-2.3,6.2-1.9,13.4,1.2,19.7
					c4.8,8.9,13.8,14.2,24,14.2c5,0,10-1.3,14.5-3.8c7.6-4.5,12.9-11.8,14.7-20.4c1.9-9.1-0.1-18.8-5.7-26.5C55.4,5.2,44.9,0,33.4,0
					C20.4,0,8.7,6.4,2,17.2c-0.7,1.1-1.5,2.4-1.9,3.8c-0.1,0.2-0.2,0.8,0.1,1.1c0.2,0.2,0.7,0.3,0.9,0.3h0c0.5,0,1.1-0.5,1.9-1.8
					c4-5.6,8.5-9.7,13.9-12.5c4.7-2.4,10-3.7,15.3-3.7c12.5,0,23.3,6.8,28.2,17.9c2.9,7,2.8,14.7-0.1,21.4
					c-2.6,6-7.5,10.6-13.7,12.9c-2.3,0.8-4.7,1.2-7.1,1.2c-9.4,0-17-5.7-19-14.2c-0.9-4.6,0.2-9.6,3-13c1.6-2,4.5-4.5,9.2-4.5
					c2.9,0.1,5.9,1.4,7.5,3.5c1.2,1.6,1.7,3.4,1.3,5.3C41,36.3,39.5,38,38.2,38c-0.4,0-0.7-0.1-1-0.4c-0.3-0.3-0.3-0.6-0.4-1
					c-0.1-0.8-0.3-1.9-1.9-2.6c-0.3-0.1-0.7-0.1-1-0.1c-2.4,0-4,2.2-4.4,4.5c-0.3,2.2,0.3,4.2,1.8,5.8c1.8,2,4.7,3.3,7.7,3.3
					c0.2,0,0.5,0,0.8,0c3.6-0.4,6.8-2.3,8.8-5.4c2.4-3.6,3.1-8.3,1.9-12.7C48,22,41.2,17.2,33,17.2z"/>
			</g>
		</g>
	</g>
	<g>
		<path class="st0" d="M102.5,55.7l-0.9-2.4h-3.3l-0.9,2.4h-1.5l3.3-8.7h1.5l3.3,8.7H102.5z M101.3,52.1l-0.8-2.4
			c-0.1-0.2-0.1-0.4-0.2-0.7c-0.1-0.3-0.2-0.6-0.2-0.8c-0.1,0.5-0.3,1-0.5,1.6l-0.8,2.3H101.3z"/>
		<path class="st0" d="M115.2,55.7h-1.4v-3.9h-4v3.9h-1.4V47h1.4v3.6h4V47h1.4V55.7z"/>
		<path class="st0" d="M117.2,47.4c0-0.2,0.1-0.4,0.2-0.6c0.1-0.1,0.3-0.2,0.6-0.2c0.2,0,0.4,0.1,0.6,0.2c0.1,0.1,0.2,0.3,0.2,0.6
			c0,0.2-0.1,0.4-0.2,0.6c-0.1,0.1-0.3,0.2-0.6,0.2c-0.3,0-0.4-0.1-0.6-0.2C117.3,47.8,117.2,47.6,117.2,47.4z M118.7,55.7h-1.4
			v-6.6h1.4V55.7z"/>
		<path class="st0" d="M123.2,54.7c0.3,0,0.7-0.1,1-0.2v1.1c-0.2,0.1-0.4,0.1-0.6,0.2c-0.2,0-0.5,0.1-0.8,0.1c-1.3,0-2-0.7-2-2.1
			v-3.5H120v-0.6l1-0.5l0.5-1.4h0.9v1.5h1.9v1.1h-1.9v3.5c0,0.3,0.1,0.6,0.3,0.7C122.7,54.6,122.9,54.7,123.2,54.7z"/>
		<path class="st0" d="M129.6,55.7l-0.3-0.9h0c-0.3,0.4-0.6,0.7-1,0.8c-0.3,0.1-0.7,0.2-1.2,0.2c-0.6,0-1.2-0.2-1.5-0.5
			c-0.4-0.3-0.5-0.8-0.5-1.5c0-0.7,0.3-1.2,0.8-1.5c0.5-0.3,1.3-0.5,2.3-0.6l1.1,0v-0.4c0-0.4-0.1-0.7-0.3-0.9s-0.5-0.3-0.9-0.3
			c-0.3,0-0.7,0-1,0.1c-0.3,0.1-0.6,0.2-0.9,0.4l-0.5-1c0.4-0.2,0.7-0.3,1.2-0.4c0.4-0.1,0.8-0.1,1.2-0.1c0.8,0,1.5,0.2,1.9,0.5
			c0.4,0.4,0.6,0.9,0.6,1.7v4.4H129.6z M127.6,54.8c0.5,0,0.9-0.1,1.2-0.4c0.3-0.3,0.5-0.7,0.5-1.2v-0.6l-0.8,0
			c-0.7,0-1.1,0.1-1.4,0.3c-0.3,0.2-0.4,0.5-0.4,0.9c0,0.3,0.1,0.5,0.3,0.7S127.2,54.8,127.6,54.8z"/>
		<path class="st0" d="M134.8,55.8c-1,0-1.8-0.3-2.3-0.9c-0.5-0.6-0.8-1.4-0.8-2.5c0-1.1,0.3-2,0.8-2.6c0.5-0.6,1.3-0.9,2.3-0.9
			c0.7,0,1.3,0.1,1.9,0.4l-0.4,1.1c-0.6-0.2-1.1-0.3-1.5-0.3c-1.1,0-1.7,0.8-1.7,2.3c0,0.7,0.1,1.3,0.4,1.7c0.3,0.4,0.7,0.6,1.2,0.6
			c0.6,0,1.2-0.2,1.8-0.5v1.2c-0.3,0.1-0.5,0.3-0.8,0.3C135.5,55.8,135.2,55.8,134.8,55.8z"/>
		<path class="st0" d="M143.9,55.7h-1.4v-4c0-0.5-0.1-0.9-0.3-1.1c-0.2-0.3-0.5-0.4-1-0.4c-0.6,0-1,0.2-1.3,0.5
			c-0.3,0.4-0.4,0.9-0.4,1.8v3.3h-1.4v-9.3h1.4v2.4c0,0.4,0,0.8-0.1,1.2h0.1c0.2-0.3,0.5-0.6,0.8-0.7s0.7-0.3,1.2-0.3
			c1.6,0,2.4,0.8,2.4,2.4V55.7z"/>
		<path class="st0" d="M145.5,47.4c0-0.2,0.1-0.4,0.2-0.6c0.1-0.1,0.3-0.2,0.6-0.2c0.2,0,0.4,0.1,0.6,0.2c0.1,0.1,0.2,0.3,0.2,0.6
			c0,0.2-0.1,0.4-0.2,0.6c-0.1,0.1-0.3,0.2-0.6,0.2c-0.3,0-0.4-0.1-0.6-0.2C145.6,47.8,145.5,47.6,145.5,47.4z M147,55.7h-1.4v-6.6
			h1.4V55.7z"/>
		<path class="st0" d="M155.9,51h3.2v4.4c-0.5,0.2-1,0.3-1.5,0.4c-0.5,0.1-1,0.1-1.6,0.1c-1.3,0-2.3-0.4-3-1.2
			c-0.7-0.8-1.1-1.9-1.1-3.3c0-1.4,0.4-2.5,1.2-3.3c0.8-0.8,1.9-1.2,3.3-1.2c0.9,0,1.8,0.2,2.6,0.5l-0.5,1.2
			c-0.7-0.3-1.4-0.5-2.1-0.5c-0.9,0-1.7,0.3-2.2,0.9c-0.5,0.6-0.8,1.4-0.8,2.4c0,1.1,0.2,1.9,0.7,2.4c0.5,0.6,1.2,0.8,2.1,0.8
			c0.5,0,1-0.1,1.5-0.2v-2.2h-1.8V51z"/>
		<path class="st0" d="M164.4,49c0.3,0,0.5,0,0.7,0.1l-0.1,1.3c-0.2,0-0.4-0.1-0.6-0.1c-0.6,0-1,0.2-1.4,0.5
			c-0.3,0.4-0.5,0.8-0.5,1.4v3.4H161v-6.6h1.1l0.2,1.2h0.1c0.2-0.4,0.5-0.7,0.9-0.9C163.6,49.1,164,49,164.4,49z"/>
		<path class="st0" d="M172.1,52.4c0,1.1-0.3,1.9-0.8,2.5c-0.6,0.6-1.3,0.9-2.3,0.9c-0.6,0-1.2-0.1-1.6-0.4
			c-0.5-0.3-0.8-0.7-1.1-1.2c-0.3-0.5-0.4-1.1-0.4-1.8c0-1.1,0.3-1.9,0.8-2.5c0.5-0.6,1.3-0.9,2.3-0.9c1,0,1.7,0.3,2.3,0.9
			C171.9,50.6,172.1,51.4,172.1,52.4z M167.4,52.4c0,1.5,0.6,2.3,1.7,2.3c1.1,0,1.7-0.8,1.7-2.3c0-1.5-0.6-2.3-1.7-2.3
			c-0.6,0-1,0.2-1.3,0.6C167.5,51.1,167.4,51.7,167.4,52.4z"/>
		<path class="st0" d="M178.1,55.7l-0.2-0.9h-0.1c-0.2,0.3-0.5,0.5-0.8,0.7c-0.4,0.2-0.8,0.3-1.2,0.3c-0.8,0-1.4-0.2-1.8-0.6
			c-0.4-0.4-0.6-1-0.6-1.8v-4.3h1.4v4.1c0,0.5,0.1,0.9,0.3,1.1c0.2,0.3,0.5,0.4,1,0.4c0.6,0,1-0.2,1.3-0.5c0.3-0.4,0.4-0.9,0.4-1.8
			v-3.3h1.4v6.6H178.1z"/>
		<path class="st0" d="M184.3,55.8c-0.8,0-1.5-0.3-1.9-0.9h-0.1c0.1,0.6,0.1,0.9,0.1,1v2.7H181v-9.5h1.1c0,0.1,0.1,0.4,0.2,0.9h0.1
			c0.4-0.7,1.1-1,2-1c0.8,0,1.5,0.3,1.9,0.9c0.5,0.6,0.7,1.4,0.7,2.5c0,1.1-0.2,1.9-0.7,2.5C185.8,55.5,185.2,55.8,184.3,55.8z
			 M184,50.2c-0.6,0-1,0.2-1.2,0.5c-0.3,0.3-0.4,0.8-0.4,1.6v0.2c0,0.8,0.1,1.4,0.4,1.7c0.3,0.4,0.7,0.5,1.2,0.5
			c0.5,0,0.9-0.2,1.1-0.6c0.3-0.4,0.4-1,0.4-1.7c0-0.7-0.1-1.3-0.4-1.7C184.9,50.4,184.5,50.2,184,50.2z"/>
		<path class="st0" d="M195.6,48.1c-0.8,0-1.5,0.3-1.9,0.9c-0.5,0.6-0.7,1.4-0.7,2.4c0,1.1,0.2,1.9,0.7,2.4c0.4,0.5,1.1,0.8,2,0.8
			c0.4,0,0.7,0,1.1-0.1c0.3-0.1,0.7-0.2,1.1-0.3v1.2c-0.7,0.3-1.5,0.4-2.3,0.4c-1.3,0-2.3-0.4-2.9-1.2c-0.7-0.8-1-1.9-1-3.3
			c0-0.9,0.2-1.7,0.5-2.4c0.3-0.7,0.8-1.2,1.4-1.6c0.6-0.4,1.4-0.5,2.2-0.5c0.9,0,1.7,0.2,2.5,0.6l-0.5,1.2
			c-0.3-0.1-0.6-0.3-0.9-0.4C196.3,48.2,196,48.1,195.6,48.1z"/>
		<path class="st0" d="M205.1,52.4c0,1.1-0.3,1.9-0.8,2.5c-0.6,0.6-1.3,0.9-2.3,0.9c-0.6,0-1.2-0.1-1.6-0.4
			c-0.5-0.3-0.8-0.7-1.1-1.2c-0.3-0.5-0.4-1.1-0.4-1.8c0-1.1,0.3-1.9,0.8-2.5c0.5-0.6,1.3-0.9,2.3-0.9c1,0,1.7,0.3,2.3,0.9
			C204.9,50.6,205.1,51.4,205.1,52.4z M200.4,52.4c0,1.5,0.6,2.3,1.7,2.3c1.1,0,1.7-0.8,1.7-2.3c0-1.5-0.6-2.3-1.7-2.3
			c-0.6,0-1,0.2-1.3,0.6C200.5,51.1,200.4,51.7,200.4,52.4z"/>
		<path class="st0" d="M212.1,55.7h-1.4v-4.1c0-0.5-0.1-0.9-0.3-1.1c-0.2-0.2-0.5-0.4-0.9-0.4c-0.5,0-0.9,0.2-1.2,0.5
			c-0.3,0.4-0.4,0.9-0.4,1.8v3.3h-1.4v-6.6h1.1l0.2,0.9h0.1c0.2-0.3,0.4-0.6,0.8-0.7c0.3-0.2,0.7-0.3,1.1-0.3c1,0,1.7,0.3,2,1h0.1
			c0.2-0.3,0.5-0.6,0.8-0.8c0.4-0.2,0.8-0.3,1.2-0.3c0.8,0,1.4,0.2,1.7,0.6c0.4,0.4,0.5,1,0.5,1.8v4.3h-1.4v-4.1
			c0-0.5-0.1-0.9-0.3-1.1c-0.2-0.2-0.5-0.4-0.9-0.4c-0.5,0-0.9,0.2-1.2,0.5c-0.3,0.3-0.4,0.9-0.4,1.6V55.7z"/>
		<path class="st0" d="M221.3,55.8c-0.8,0-1.5-0.3-1.9-0.9h-0.1c0.1,0.6,0.1,0.9,0.1,1v2.7h-1.4v-9.5h1.1c0,0.1,0.1,0.4,0.2,0.9h0.1
			c0.4-0.7,1.1-1,2-1c0.8,0,1.5,0.3,1.9,0.9c0.5,0.6,0.7,1.4,0.7,2.5c0,1.1-0.2,1.9-0.7,2.5C222.7,55.5,222.1,55.8,221.3,55.8z
			 M220.9,50.2c-0.6,0-1,0.2-1.2,0.5c-0.3,0.3-0.4,0.8-0.4,1.6v0.2c0,0.8,0.1,1.4,0.4,1.7c0.3,0.4,0.7,0.5,1.2,0.5
			c0.5,0,0.9-0.2,1.1-0.6c0.3-0.4,0.4-1,0.4-1.7c0-0.7-0.1-1.3-0.4-1.7C221.8,50.4,221.4,50.2,220.9,50.2z"/>
		<path class="st0" d="M229.5,55.7l-0.3-0.9h0c-0.3,0.4-0.6,0.7-1,0.8c-0.3,0.1-0.7,0.2-1.2,0.2c-0.6,0-1.2-0.2-1.5-0.5
			c-0.4-0.3-0.5-0.8-0.5-1.5c0-0.7,0.3-1.2,0.8-1.5c0.5-0.3,1.3-0.5,2.3-0.6l1.1,0v-0.4c0-0.4-0.1-0.7-0.3-0.9
			c-0.2-0.2-0.5-0.3-0.9-0.3c-0.3,0-0.7,0-1,0.1c-0.3,0.1-0.6,0.2-0.9,0.4l-0.5-1c0.4-0.2,0.7-0.3,1.2-0.4c0.4-0.1,0.8-0.1,1.2-0.1
			c0.8,0,1.5,0.2,1.9,0.5c0.4,0.4,0.6,0.9,0.6,1.7v4.4H229.5z M227.4,54.8c0.5,0,0.9-0.1,1.2-0.4c0.3-0.3,0.5-0.7,0.5-1.2v-0.6
			l-0.8,0c-0.7,0-1.1,0.1-1.4,0.3c-0.3,0.2-0.4,0.5-0.4,0.9c0,0.3,0.1,0.5,0.3,0.7C226.8,54.7,227.1,54.8,227.4,54.8z"/>
		<path class="st0" d="M238,55.7h-1.4v-4c0-0.5-0.1-0.9-0.3-1.1c-0.2-0.3-0.5-0.4-1-0.4c-0.6,0-1,0.2-1.3,0.5
			c-0.3,0.3-0.4,0.9-0.4,1.8v3.3h-1.4v-6.6h1.1l0.2,0.9h0.1c0.2-0.3,0.5-0.6,0.8-0.7c0.4-0.2,0.8-0.3,1.2-0.3c1.6,0,2.4,0.8,2.4,2.4
			V55.7z"/>
		<path class="st0" d="M239,49.1h1.5l1.3,3.7c0.2,0.5,0.3,1,0.4,1.5h0c0-0.2,0.1-0.5,0.2-0.8c0.1-0.3,0.6-1.8,1.5-4.4h1.5l-2.8,7.5
			c-0.5,1.4-1.4,2.1-2.6,2.1c-0.3,0-0.6,0-0.9-0.1v-1.1c0.2,0,0.5,0.1,0.7,0.1c0.7,0,1.1-0.4,1.4-1.2l0.2-0.6L239,49.1z"/>
	</g>
	<g>
		<g>
			<path class="st0" d="M252.8,20.7c1.6,0,2.8,1.3,2.8,2.8c0,1.6-1.2,2.9-2.8,2.9c-1.6,0-2.8-1.3-2.8-2.9
				C250,22,251.3,20.7,252.8,20.7L252.8,20.7z M252.8,21.2c-1.3,0-2.3,1.1-2.3,2.4c0,1.4,1,2.4,2.3,2.4c1.3,0,2.3-1.1,2.3-2.4
				C255.1,22.3,254.1,21.2,252.8,21.2L252.8,21.2z M252.3,25.3h-0.5v-3.2c0.3,0,0.5-0.1,0.9-0.1c0.5,0,0.8,0.1,1,0.2
				c0.2,0.1,0.3,0.4,0.3,0.7c0,0.4-0.3,0.7-0.6,0.8v0c0.3,0.1,0.5,0.3,0.5,0.8c0.1,0.5,0.2,0.7,0.2,0.8h-0.5
				c-0.1-0.1-0.2-0.4-0.2-0.8c-0.1-0.4-0.3-0.6-0.7-0.6h-0.4V25.3z M252.3,23.5h0.4c0.4,0,0.8-0.2,0.8-0.5c0-0.3-0.2-0.6-0.8-0.6
				c-0.2,0-0.3,0-0.4,0V23.5z"/>
		</g>
		<path class="st0" d="M93.4,41.8c-3.2,0-5.9-1.7-7.4-4.3v18.1h-5.2V19.3H86V23c1.5-2.6,4.1-4.3,7.4-4.3c6.6,0,10.6,5.5,10.6,11.5
			C104,36.3,99.9,41.8,93.4,41.8z M92.4,23.2c-3.8,0-6.3,3.2-6.4,6.9c0,3.8,2.5,7.2,6.4,7.2c3.8,0,6.4-3.2,6.4-7
			C98.7,26.3,96.1,23.2,92.4,23.2z"/>
		<path class="st0" d="M118.4,18.6c7.3,0,10.9,5.5,10.9,11.6c0,0.3,0,1-0.1,1.3h-16.8c0,3.8,3.1,6.4,7,6.4c2.7,0,5-1.2,6.8-2.7
			l2.7,2.8c-2.2,1.8-4.9,3.9-10.1,3.9c-7.7,0-11.8-5.5-11.8-11.6C107.1,24.2,111.1,18.6,118.4,18.6z M112.4,28.4h12
			c-0.3-3.2-2.7-6-6-6C115.1,22.4,112.7,25.2,112.4,28.4z"/>
		<path class="st0" d="M138.4,40.9h-5.3V19.3h5.3v2.9c1.1-2,3.5-3.6,6.4-3.6c6.4,0,9,4.1,9,10.5v11.8h-5.2V29.1c0-4.4-2-6.2-5.1-6.2
			c-2.8,0-5.1,1.8-5.2,6V40.9z"/>
		<path class="st0" d="M160.1,28v-4.3H157v-4.3h3.1V12h5.3v7.3h4.6v4.3h-4.6v4.2c0,6.9,0.3,9.1,2.8,9.1c0.4,0,1-0.1,1.5-0.2l0.6,4
			c-1.5,0.5-2.7,0.8-3.7,0.8C160.1,41.5,160.1,36.9,160.1,28z"/>
		<path class="st0" d="M183.6,18.6c3.3,0,5.9,1.7,7.4,4.4v-3.7h5.2v21.6h-5.2v-3.4c-1.5,2.6-4.1,4.3-7.4,4.3
			c-6.6,0-10.6-5.5-10.6-11.5C173.1,24.2,177.2,18.6,183.6,18.6z M184.7,37.2c3.8,0,6.3-3.2,6.3-7s-2.5-7.1-6.3-7.1
			c-3.8,0-6.4,3.2-6.4,7.1C178.4,34.2,181,37.2,184.7,37.2z"/>
		<path class="st0" d="M206.1,40.9h-5.2V0.1h5.2v22.2c1.1-2,3.5-3.6,6.4-3.6c6.5,0,9.1,4.1,9.1,10.5v11.8h-5.3V29.1
			c0-4.4-2-6.2-5-6.2c-2.9,0-5.2,1.8-5.2,6V40.9z"/>
		<path class="st0" d="M224.8,30.1c0-6,3.9-11.5,11.6-11.5c7.7,0,11.6,5.3,11.6,11.5s-3.9,11.5-11.6,11.5
			C228.8,41.6,224.8,36.1,224.8,30.1z M242.8,30.1c0-4.6-2.8-7.6-6.4-7.6c-3.6,0-6.4,3.1-6.4,7.6c0,4.7,2.7,7.8,6.4,7.8
			C240,37.9,242.8,34.8,242.8,30.1z"/>
		<g>
			<g>
				<path class="st1" d="M33,17.2c-2.5,0-5,0.5-7.4,1.3c-5.7,2.4-10,6.9-12.2,12.6c-2.3,6.2-1.9,13.4,1.2,19.7
					c4.8,8.9,13.8,14.2,24,14.2c5,0,10-1.3,14.5-3.8c7.6-4.5,12.9-11.8,14.7-20.4c1.9-9.1-0.1-18.8-5.7-26.5C55.4,5.2,44.9,0,33.4,0
					C20.4,0,8.7,6.4,2,17.2c-0.7,1.1-1.5,2.4-1.9,3.8c-0.1,0.2-0.2,0.8,0.1,1.1c0.2,0.2,0.7,0.3,0.9,0.3h0c0.5,0,1.1-0.5,1.9-1.8
					c4-5.6,8.5-9.7,13.9-12.5c4.7-2.4,10-3.7,15.3-3.7c12.5,0,23.3,6.8,28.2,17.9c2.9,7,2.8,14.7-0.1,21.4
					c-2.6,6-7.5,10.6-13.7,12.9c-2.3,0.8-4.7,1.2-7.1,1.2c-9.4,0-17-5.7-19-14.2c-0.9-4.6,0.2-9.6,3-13c1.6-2,4.5-4.5,9.2-4.5
					c2.9,0.1,5.9,1.4,7.5,3.5c1.2,1.6,1.7,3.4,1.3,5.3C41,36.3,39.5,38,38.2,38c-0.4,0-0.7-0.1-1-0.4c-0.3-0.3-0.3-0.6-0.4-1
					c-0.1-0.8-0.3-1.9-1.9-2.6c-0.3-0.1-0.7-0.1-1-0.1c-2.4,0-4,2.2-4.4,4.5c-0.3,2.2,0.3,4.2,1.8,5.8c1.8,2,4.7,3.3,7.7,3.3
					c0.2,0,0.5,0,0.8,0c3.6-0.4,6.8-2.3,8.8-5.4c2.4-3.6,3.1-8.3,1.9-12.7C48,22,41.2,17.2,33,17.2z"/>
			</g>
		</g>
	</g>
</g>
</svg>
