<?xml version="1.0" encoding="utf-8"?>
<!-- Generator: Adobe Illustrator 16.0.0, SVG Export Plug-In . SVG Version: 6.00 Build 0)  -->
<!DOCTYPE svg PUBLIC "-//W3C//DTD SVG 1.1//EN" "http://www.w3.org/Graphics/SVG/1.1/DTD/svg11.dtd">
<svg version="1.1" id="Layer_1" xmlns="http://www.w3.org/2000/svg" xmlns:xlink="http://www.w3.org/1999/xlink" x="0px" y="0px"
	 width="188px" height="50px" viewBox="0 0 188 50" enable-background="new 0 0 188 50" xml:space="preserve">
<g>
	<g>
		<path fill="#343E48" d="M68.382,35.913c-2.511,0-4.578-1.269-5.759-3.269v11.364h-4.036V18.695h4.036v2.829
			c1.181-2,3.2-3.316,5.71-3.316c5.07,0,8.22,4.195,8.22,8.829S73.355,35.913,68.382,35.913z M67.547,21.671
			c-2.905,0-4.874,2.438-4.924,5.268c0,2.925,1.919,5.512,4.924,5.512c2.902,0,4.922-2.437,4.922-5.364
			C72.469,24.062,70.449,21.671,67.547,21.671z"/>
		<path fill="#343E48" d="M87.688,18.157c5.612,0,8.467,4.195,8.467,8.879c0,0.244,0,0.73-0.05,0.977H83.11
			c0,2.925,2.412,4.876,5.414,4.876c2.117,0,3.839-0.927,5.267-2.099l2.068,2.146c-1.675,1.418-3.792,2.978-7.829,2.978
			c-5.958,0-9.105-4.242-9.105-8.879C78.926,22.401,82.075,18.157,87.688,18.157z M83.06,25.621h9.254
			c-0.197-2.439-2.118-4.585-4.627-4.585C85.127,21.036,83.257,23.182,83.06,25.621z"/>
		<path fill="#343E48" d="M103.138,35.23h-4.086V18.695h4.086v2.245c0.837-1.561,2.709-2.782,4.974-2.782
			c4.972,0,6.987,3.171,6.987,8.049v9.023h-4.033v-9.023c0-3.366-1.528-4.78-3.941-4.78c-2.164,0-3.936,1.414-3.986,4.633V35.23
			L103.138,35.23z"/>
		<g>
			<path fill="#343E48" d="M119.921,25.33v-3.319h-2.364v-3.315h2.364v-5.61h4.086v5.61h3.543v3.315h-3.543v3.22
				c0,5.269,0.246,6.976,2.166,6.976c0.345,0,0.787-0.1,1.181-0.145l0.491,3.069c-1.18,0.395-2.067,0.589-2.854,0.589
				C119.921,35.719,119.921,32.156,119.921,25.33z"/>
			<path fill="#343E48" d="M138.172,18.157c2.563,0,4.531,1.318,5.758,3.365v-2.828h3.988v16.534h-3.988v-2.634
				c-1.18,1.998-3.195,3.318-5.708,3.318c-5.07,0-8.222-4.195-8.222-8.829S133.198,18.157,138.172,18.157z M139.007,32.401
				c2.905,0,4.875-2.489,4.875-5.365c0-2.878-1.97-5.415-4.875-5.415c-2.901,0-4.922,2.486-4.922,5.415
				C134.085,30.061,136.105,32.401,139.007,32.401z"/>
			<g>
				<path fill="#343E48" d="M155.565,35.23h-4.036V0.111h4.036v20.828c0.885-1.562,2.707-2.782,4.971-2.782
					c5.02,0,7.04,3.171,7.04,8.05v9.023h-4.087v-9.023c0-3.366-1.524-4.78-3.889-4.78c-2.215,0-4.035,1.414-4.035,4.633V35.23
					L155.565,35.23z"/>
				<path fill="#343E48" d="M170.033,26.938c0-4.634,3.053-8.781,8.958-8.781c5.956,0,9.009,4.098,9.009,8.781
					c0,4.682-3.053,8.828-9.009,8.828C173.086,35.767,170.033,31.571,170.033,26.938z M183.967,26.938
					c0-3.512-2.167-5.854-4.976-5.854c-2.756,0-4.921,2.342-4.921,5.854c0,3.607,2.117,5.95,4.921,5.95
					C181.8,32.889,183.967,30.546,183.967,26.938z"/>
			</g>
		</g>
	</g>
	<g>
		<g>
			<path fill="#005DA6" d="M23.748,15.828c-1.79,0-3.571,0.321-5.294,0.958c-4.094,1.697-7.209,4.884-8.757,8.968
				c-1.682,4.438-1.373,9.55,0.844,14.031c3.438,6.318,9.887,10.104,17.244,10.104c3.578,0,7.176-0.931,10.405-2.688
				c5.487-3.225,9.24-8.394,10.556-14.553c1.382-6.467-0.106-13.355-4.087-18.899C39.794,7.298,32.256,3.594,23.985,3.594
				c-9.301,0-17.726,4.588-22.537,12.273c-0.475,0.766-1.063,1.715-1.381,2.683c-0.048,0.144-0.142,0.591,0.041,0.805
				c0.151,0.176,0.475,0.223,0.625,0.223h0.001c0.391,0,0.801-0.389,1.388-1.258c2.854-3.992,6.108-6.897,9.956-8.893
				c3.409-1.711,7.213-2.614,11.002-2.614c8.995,0,16.76,4.879,20.267,12.729c2.06,4.958,2.043,10.495-0.045,15.208
				c-1.903,4.3-5.392,7.558-9.82,9.173c-1.66,0.551-3.372,0.826-5.103,0.826c-6.721,0-12.219-4.063-13.678-10.11
				c-0.666-3.271,0.151-6.808,2.126-9.241c1.169-1.444,3.264-3.175,6.606-3.236c2.098,0.041,4.206,1.018,5.384,2.488
				c0.887,1.106,1.208,2.401,0.924,3.746c-0.272,1.032-1.333,2.251-2.251,2.251c-0.271,0-0.524-0.095-0.736-0.274
				c-0.196-0.206-0.225-0.426-0.265-0.732c-0.072-0.552-0.182-1.386-1.39-1.83c-0.229-0.066-0.492-0.104-0.752-0.104
				c-1.702,0-2.894,1.603-3.192,3.186c-0.206,1.543,0.234,2.99,1.274,4.166c1.28,1.445,3.407,2.343,5.552,2.343
				c0.176,0,0.346-0.005,0.563-0.021c2.618-0.297,4.88-1.654,6.354-3.821c1.72-2.53,2.218-5.921,1.334-9.071
				C34.507,19.234,29.604,15.828,23.748,15.828z"/>
		</g>
	</g>
</g>
</svg>
