<?xml version="1.0" encoding="utf-8"?>
<!-- Generator: Adobe Illustrator 19.1.1, SVG Export Plug-In . SVG Version: 6.00 Build 0)  -->
<svg version="1.1"
	 id="svg2" xmlns:sodipodi="http://sodipodi.sourceforge.net/DTD/sodipodi-0.dtd" xmlns:rdf="http://www.w3.org/1999/02/22-rdf-syntax-ns#" xmlns:svg="http://www.w3.org/2000/svg" xmlns:inkscape="http://www.inkscape.org/namespaces/inkscape" xmlns:dc="http://purl.org/dc/elements/1.1/" xmlns:cc="http://creativecommons.org/ns#" sodipodi:docname="pentaho HDS logo CMYK.svg" inkscape:version="0.91 r13725"
	 xmlns="http://www.w3.org/2000/svg" xmlns:xlink="http://www.w3.org/1999/xlink" x="0px" y="0px" width="268px" height="65px"
	 viewBox="-41 4 268 65" style="enable-background:new -41 4 268 65;" xml:space="preserve">
<style type="text/css">
	.st0{clip-path:url(#SVGID_2_);}
	.st1{fill:#343E48;}
	.st2{fill:#005DA6;}
</style>
<sodipodi:namedview  id="namedview4" gridtolerance="10" inkscape:cx="150.25602" pagecolor="#ffffff" objecttolerance="10" inkscape:zoom="4.1345938" showgrid="false" borderopacity="1" guidetolerance="10" bordercolor="#666666" inkscape:cy="75.991196" inkscape:pageopacity="0" inkscape:pageshadow="2" inkscape:window-maximized="0" inkscape:window-y="0" inkscape:current-layer="g10" inkscape:window-width="1706" inkscape:window-x="0" inkscape:window-height="1051">
	</sodipodi:namedview>
<g id="g10" transform="matrix(1.25,0,0,-1.25,0,65)" inkscape:label="pentaho HDS logo CMYK" inkscape:groupmode="layer">
	<g id="g12" transform="matrix(0.88091602,0,0,0.88091602,-26.869594,-43.223258)">
		<g>
			<defs>
				<rect id="SVGID_1_" x="-52.9" y="-11.3" width="340.9" height="167.4"/>
			</defs>
			<clipPath id="SVGID_2_">
				<use xlink:href="#SVGID_1_"  style="overflow:visible;"/>
			</clipPath>
			<g class="st0">
				<g>
					<g>
						<path class="st1" d="M210.9,84.5c1.3,0,2.4-1.1,2.4-2.4c0-1.4-1.1-2.4-2.4-2.4c-1.3,0-2.4,1.1-2.4,2.4
							C208.4,83.4,209.5,84.5,210.9,84.5L210.9,84.5z M210.9,84.1c-1.1,0-1.9-0.9-1.9-2.1c0-1.2,0.9-2.1,2-2.1
							c1.1,0,1.9,0.9,1.9,2.1C212.8,83.2,211.9,84.1,210.9,84.1L210.9,84.1z M210.4,80.7H210v2.7c0.2,0,0.4,0.1,0.8,0.1
							c0.4,0,0.7-0.1,0.8-0.2c0.2-0.1,0.2-0.3,0.2-0.6c0-0.4-0.2-0.6-0.5-0.7v0c0.2,0,0.4-0.3,0.5-0.7c0.1-0.4,0.1-0.6,0.2-0.7h-0.5
							c-0.1,0.1-0.1,0.3-0.2,0.7c-0.1,0.3-0.2,0.5-0.6,0.5h-0.3V80.7z M210.4,82.2h0.3c0.4,0,0.7,0.1,0.7,0.5c0,0.2-0.2,0.5-0.7,0.5
							c-0.1,0-0.2,0-0.3,0V82.2z"/>
					</g>
					<path class="st1" d="M74.9,66.6c-2.8,0-5,1.4-6.4,3.6V54.8h-4.5v30.9h4.5v-3.1c1.3,2.2,3.5,3.7,6.3,3.7c5.6,0,9.1-4.7,9.1-9.8
						C83.9,71.3,80.3,66.6,74.9,66.6z M73.9,82.4c-3.2,0-5.4-2.7-5.4-5.9c0-3.3,2.1-6.1,5.4-6.1c3.2,0,5.4,2.7,5.4,6
						C79.4,79.8,77.1,82.4,73.9,82.4z"/>
					<path class="st1" d="M96.2,86.3c6.2,0,9.3-4.7,9.3-9.9c0-0.3,0-0.8-0.1-1.1H91.1c0-3.3,2.7-5.4,6-5.4c2.3,0,4.2,1,5.8,2.3
						l2.3-2.4c-1.8-1.6-4.2-3.3-8.6-3.3c-6.6,0-10,4.7-10,9.9C86.5,81.6,90,86.3,96.2,86.3z M91.1,78h10.2c-0.2,2.7-2.3,5.1-5.1,5.1
						C93.3,83.1,91.3,80.7,91.1,78z"/>
					<path class="st1" d="M113.2,67.3h-4.5v18.4h4.5v-2.5c0.9,1.7,3,3.1,5.5,3.1c5.5,0,7.7-3.5,7.7-9v-10h-4.4v10
						c0,3.7-1.7,5.3-4.3,5.3c-2.4,0-4.3-1.6-4.4-5.2V67.3z"/>
					<path class="st1" d="M131.7,78.3V82h-2.6v3.7h2.6V92h4.5v-6.2h3.9V82h-3.9v-3.6c0-5.9,0.3-7.8,2.4-7.8c0.4,0,0.9,0.1,1.3,0.2
						l0.5-3.4c-1.3-0.4-2.3-0.7-3.1-0.7C131.7,66.8,131.7,70.7,131.7,78.3z"/>
					<path class="st1" d="M151.8,86.3c2.8,0,5-1.5,6.4-3.7v3.1h4.4V67.3h-4.4v2.9c-1.3-2.2-3.5-3.7-6.3-3.7c-5.6,0-9.1,4.7-9.1,9.8
						C142.8,81.5,146.3,86.3,151.8,86.3z M152.8,70.5c3.2,0,5.4,2.8,5.4,6c0,3.2-2.2,6-5.4,6c-3.2,0-5.4-2.8-5.4-6
						C147.3,73.1,149.5,70.5,152.8,70.5z"/>
					<path class="st1" d="M171,67.3h-4.5v34.8h4.5V83.2c1,1.7,3,3.1,5.5,3.1c5.5,0,7.8-3.5,7.8-9v-10h-4.5v10c0,3.7-1.7,5.3-4.3,5.3
						c-2.4,0-4.4-1.6-4.4-5.2V67.3z"/>
					<path class="st1" d="M187,76.5c0,5.2,3.4,9.8,9.9,9.8c6.6,0,9.9-4.6,9.9-9.8c0-5.2-3.4-9.8-9.9-9.8
						C190.3,66.7,187,71.4,187,76.5z M202.3,76.5c0,3.9-2.4,6.5-5.5,6.5c-3,0-5.4-2.6-5.4-6.5c0-4,2.3-6.6,5.4-6.6
						S202.3,72.5,202.3,76.5z"/>
					<g>
						<g>
							<path class="st2" d="M23.3,87.6c-2.1,0-4.2-0.4-6.3-1.1c-4.9-2-8.6-5.8-10.4-10.7c-2-5.3-1.6-11.4,1-16.8
								c4.1-7.6,11.7-12.1,20.5-12.1c4.2,0,8.5,1.1,12.4,3.2C47,53.8,51.4,60,53,67.4c1.6,7.7-0.1,16-4.9,22.6
								c-5.8,7.7-14.7,12.2-24.5,12.2c-11,0-21-5.5-26.8-14.7c-0.6-0.9-1.3-2.1-1.6-3.2c-0.1-0.2-0.2-0.7,0-1
								c0.2-0.2,0.6-0.3,0.7-0.3h0c0.5,0,1,0.5,1.6,1.5c3.4,4.8,7.3,8.3,11.8,10.7c4,2.1,8.6,3.1,13.1,3.1
								c10.7,0,19.9-5.8,24.1-15.2c2.4-5.9,2.4-12.6-0.1-18.2c-2.3-5.2-6.4-9.1-11.7-11c-2-0.7-4-1-6.1-1c-8,0-14.5,4.9-16.2,12.1
								c-0.8,3.9,0.2,8.2,2.5,11.1c1.4,1.7,3.9,3.8,7.8,3.9c2.5,0,5-1.2,6.4-3c1.1-1.3,1.4-2.9,1.1-4.5c-0.3-1.2-1.6-2.7-2.7-2.7
								c-0.3,0-0.6,0.1-0.9,0.3c-0.2,0.2-0.3,0.5-0.3,0.9c-0.1,0.7-0.2,1.7-1.6,2.2c-0.3,0.1-0.6,0.1-0.9,0.1c-2,0-3.4-1.9-3.8-3.8
								c-0.2-1.8,0.3-3.6,1.5-5c1.5-1.7,4-2.8,6.6-2.8c0.2,0,0.4,0,0.7,0c3.1,0.4,5.8,2,7.5,4.6c2,3,2.6,7.1,1.6,10.9
								C36.1,83.5,30.3,87.6,23.3,87.6z"/>
						</g>
					</g>
				</g>
				<g>
					<path class="st1" d="M82.6,54.7l-0.7,2.1H79l-0.7-2.1H77l2.8,7.5h1.3l2.8-7.5H82.6z M81.5,57.8l-0.7,2
						c-0.1,0.1-0.1,0.3-0.2,0.6c-0.1,0.3-0.2,0.5-0.2,0.6c-0.1-0.4-0.2-0.9-0.4-1.4l-0.7-1.9H81.5z"/>
					<path class="st1" d="M93.4,54.7h-1.2V58h-3.4v-3.3h-1.2v7.4h1.2v-3h3.4v3h1.2V54.7z"/>
					<path class="st1" d="M95.2,61.8c0,0.2,0.1,0.4,0.2,0.5c0.1,0.1,0.3,0.2,0.5,0.2c0.2,0,0.4-0.1,0.5-0.2c0.1-0.1,0.2-0.3,0.2-0.5
						c0-0.2-0.1-0.4-0.2-0.5c-0.1-0.1-0.3-0.2-0.5-0.2c-0.2,0-0.4,0.1-0.5,0.2C95.2,61.4,95.2,61.6,95.2,61.8z M96.4,54.7h-1.2v5.6
						h1.2V54.7z"/>
					<path class="st1" d="M100.2,55.5c0.3,0,0.6,0,0.9,0.1v-0.9c-0.1-0.1-0.3-0.1-0.5-0.1c-0.2,0-0.4-0.1-0.6-0.1
						c-1.1,0-1.7,0.6-1.7,1.8v3h-0.8v0.5l0.8,0.4l0.4,1.2h0.7v-1.2h1.6v-0.9h-1.6v-3c0-0.3,0.1-0.5,0.2-0.6
						C99.8,55.6,100,55.5,100.2,55.5z"/>
					<path class="st1" d="M105.7,54.7l-0.2,0.8h0c-0.3-0.3-0.5-0.6-0.8-0.7c-0.3-0.1-0.6-0.2-1.1-0.2c-0.6,0-1,0.1-1.3,0.4
						c-0.3,0.3-0.5,0.7-0.5,1.3c0,0.6,0.2,1,0.6,1.3c0.4,0.3,1.1,0.5,2,0.5l1,0v0.3c0,0.4-0.1,0.6-0.3,0.8c-0.2,0.2-0.4,0.3-0.8,0.3
						c-0.3,0-0.6,0-0.8-0.1c-0.3-0.1-0.5-0.2-0.8-0.3l-0.4,0.9c0.3,0.2,0.6,0.3,1,0.4c0.4,0.1,0.7,0.1,1,0.1c0.7,0,1.3-0.2,1.6-0.5
						c0.4-0.3,0.5-0.8,0.5-1.5v-3.8H105.7z M104,55.5c0.4,0,0.8,0.1,1,0.4c0.3,0.2,0.4,0.6,0.4,1v0.5l-0.7,0c-0.6,0-1-0.1-1.2-0.3
						c-0.3-0.2-0.4-0.4-0.4-0.8c0-0.3,0.1-0.4,0.2-0.6S103.7,55.5,104,55.5z"/>
					<path class="st1" d="M110.1,54.6c-0.9,0-1.5,0.2-1.9,0.7c-0.4,0.5-0.7,1.2-0.7,2.1c0,0.9,0.2,1.7,0.7,2.2
						c0.5,0.5,1.1,0.8,2,0.8c0.6,0,1.1-0.1,1.6-0.3l-0.4-1c-0.5,0.2-0.9,0.3-1.2,0.3c-1,0-1.5-0.6-1.5-1.9c0-0.6,0.1-1.1,0.4-1.4
						c0.2-0.3,0.6-0.5,1.1-0.5c0.5,0,1,0.1,1.5,0.4v-1c-0.2-0.1-0.4-0.2-0.7-0.3C110.8,54.6,110.5,54.6,110.1,54.6z"/>
					<path class="st1" d="M117.9,54.7h-1.2v3.5c0,0.4-0.1,0.8-0.3,1c-0.2,0.2-0.5,0.3-0.8,0.3c-0.5,0-0.9-0.1-1.1-0.4
						c-0.2-0.3-0.4-0.8-0.4-1.5v-2.8H113v7.9h1.2v-2c0-0.3,0-0.7-0.1-1h0.1c0.2,0.3,0.4,0.5,0.7,0.6c0.3,0.1,0.6,0.2,1,0.2
						c1.4,0,2-0.7,2-2.1V54.7z"/>
					<path class="st1" d="M119.3,61.8c0,0.2,0.1,0.4,0.2,0.5c0.1,0.1,0.3,0.2,0.5,0.2c0.2,0,0.4-0.1,0.5-0.2
						c0.1-0.1,0.2-0.3,0.2-0.5c0-0.2-0.1-0.4-0.2-0.5c-0.1-0.1-0.3-0.2-0.5-0.2c-0.2,0-0.4,0.1-0.5,0.2
						C119.4,61.4,119.3,61.6,119.3,61.8z M120.6,54.7h-1.2v5.6h1.2V54.7z"/>
					<path class="st1" d="M128.2,58.7h2.7V55c-0.4-0.1-0.9-0.2-1.3-0.3c-0.4-0.1-0.9-0.1-1.3-0.1c-1.1,0-2,0.3-2.6,1
						c-0.6,0.7-0.9,1.6-0.9,2.8c0,1.2,0.3,2.1,1,2.8c0.7,0.7,1.6,1,2.8,1c0.8,0,1.5-0.1,2.2-0.4l-0.4-1c-0.6,0.3-1.2,0.4-1.8,0.4
						c-0.8,0-1.4-0.2-1.9-0.7c-0.5-0.5-0.7-1.2-0.7-2c0-0.9,0.2-1.6,0.6-2.1c0.4-0.5,1-0.7,1.8-0.7c0.4,0,0.8,0,1.3,0.1v1.9h-1.5
						V58.7z"/>
					<path class="st1" d="M135.4,60.4c0.2,0,0.4,0,0.6-0.1l-0.1-1.1c-0.2,0-0.3,0.1-0.5,0.1c-0.5,0-0.9-0.2-1.2-0.5
						c-0.3-0.3-0.4-0.7-0.4-1.2v-2.9h-1.2v5.6h0.9l0.2-1h0.1c0.2,0.3,0.4,0.6,0.7,0.8C134.7,60.3,135,60.4,135.4,60.4z"/>
					<path class="st1" d="M142,57.5c0-0.9-0.2-1.6-0.7-2.1c-0.5-0.5-1.1-0.8-2-0.8c-0.5,0-1,0.1-1.4,0.4c-0.4,0.2-0.7,0.6-0.9,1
						c-0.2,0.4-0.3,1-0.3,1.5c0,0.9,0.2,1.6,0.7,2.1c0.5,0.5,1.1,0.8,2,0.8c0.8,0,1.5-0.3,1.9-0.8C141.8,59.1,142,58.4,142,57.5z
						 M137.9,57.5c0-1.3,0.5-1.9,1.4-1.9c0.9,0,1.4,0.6,1.4,1.9c0,1.3-0.5,1.9-1.4,1.9c-0.5,0-0.9-0.2-1.1-0.5
						C138,58.6,137.9,58.1,137.9,57.5z"/>
					<path class="st1" d="M147.1,54.7l-0.2,0.7h-0.1c-0.2-0.3-0.4-0.5-0.7-0.6c-0.3-0.1-0.7-0.2-1-0.2c-0.7,0-1.2,0.2-1.5,0.5
						c-0.3,0.3-0.5,0.9-0.5,1.5v3.7h1.2v-3.5c0-0.4,0.1-0.8,0.3-1c0.2-0.2,0.5-0.3,0.8-0.3c0.5,0,0.9,0.1,1.1,0.4
						c0.2,0.3,0.4,0.8,0.4,1.5v2.8h1.2v-5.6H147.1z"/>
					<path class="st1" d="M152.4,54.6c-0.7,0-1.3,0.3-1.7,0.8h-0.1c0-0.5,0.1-0.8,0.1-0.9v-2.3h-1.2v8.1h1c0-0.1,0.1-0.4,0.2-0.8
						h0.1c0.4,0.6,0.9,0.9,1.7,0.9c0.7,0,1.2-0.3,1.6-0.8c0.4-0.5,0.6-1.2,0.6-2.1s-0.2-1.6-0.6-2.1
						C153.7,54.8,153.1,54.6,152.4,54.6z M152.1,59.4c-0.5,0-0.8-0.1-1-0.4c-0.2-0.3-0.3-0.7-0.3-1.3v-0.2c0-0.7,0.1-1.2,0.3-1.5
						c0.2-0.3,0.6-0.5,1.1-0.5c0.4,0,0.7,0.2,1,0.5c0.2,0.3,0.3,0.8,0.3,1.4c0,0.6-0.1,1.1-0.3,1.4S152.6,59.4,152.1,59.4z"/>
					<path class="st1" d="M162,61.2c-0.7,0-1.2-0.2-1.6-0.7c-0.4-0.5-0.6-1.2-0.6-2c0-0.9,0.2-1.6,0.6-2.1c0.4-0.5,0.9-0.7,1.7-0.7
						c0.3,0,0.6,0,0.9,0.1s0.6,0.1,0.9,0.2v-1c-0.6-0.2-1.2-0.3-2-0.3c-1.1,0-1.9,0.3-2.5,1c-0.6,0.7-0.9,1.6-0.9,2.8
						c0,0.8,0.1,1.4,0.4,2c0.3,0.6,0.7,1,1.2,1.3c0.5,0.3,1.2,0.5,1.9,0.5c0.8,0,1.5-0.2,2.1-0.5l-0.4-1c-0.3,0.1-0.5,0.2-0.8,0.3
						C162.6,61.1,162.3,61.2,162,61.2z"/>
					<path class="st1" d="M170.2,57.5c0-0.9-0.2-1.6-0.7-2.1c-0.5-0.5-1.1-0.8-2-0.8c-0.5,0-1,0.1-1.4,0.4c-0.4,0.2-0.7,0.6-0.9,1
						c-0.2,0.4-0.3,1-0.3,1.5c0,0.9,0.2,1.6,0.7,2.1c0.5,0.5,1.1,0.8,2,0.8c0.8,0,1.5-0.3,1.9-0.8C169.9,59.1,170.2,58.4,170.2,57.5
						z M166.1,57.5c0-1.3,0.5-1.9,1.4-1.9c0.9,0,1.4,0.6,1.4,1.9c0,1.3-0.5,1.9-1.4,1.9c-0.5,0-0.9-0.2-1.1-0.5
						C166.2,58.6,166.1,58.1,166.1,57.5z"/>
					<path class="st1" d="M176.1,54.7h-1.2v3.5c0,0.4-0.1,0.8-0.2,1c-0.2,0.2-0.4,0.3-0.8,0.3c-0.5,0-0.8-0.1-1-0.4
						c-0.2-0.3-0.3-0.8-0.3-1.5v-2.8h-1.2v5.6h0.9l0.2-0.7h0.1c0.2,0.3,0.4,0.5,0.7,0.6s0.6,0.2,1,0.2c0.9,0,1.4-0.3,1.7-0.9h0.1
						c0.2,0.3,0.4,0.5,0.7,0.6s0.6,0.2,1,0.2c0.7,0,1.2-0.2,1.5-0.5c0.3-0.3,0.5-0.9,0.5-1.5v-3.7h-1.2v3.5c0,0.4-0.1,0.8-0.2,1
						c-0.2,0.2-0.4,0.3-0.8,0.3c-0.5,0-0.8-0.1-1-0.4c-0.2-0.3-0.3-0.7-0.3-1.3V54.7z"/>
					<path class="st1" d="M183.9,54.6c-0.7,0-1.3,0.3-1.7,0.8h-0.1c0-0.5,0.1-0.8,0.1-0.9v-2.3h-1.2v8.1h1c0-0.1,0.1-0.4,0.2-0.8
						h0.1c0.4,0.6,0.9,0.9,1.7,0.9c0.7,0,1.2-0.3,1.6-0.8c0.4-0.5,0.6-1.2,0.6-2.1s-0.2-1.6-0.6-2.1
						C185.2,54.8,184.6,54.6,183.9,54.6z M183.6,59.4c-0.5,0-0.8-0.1-1-0.4c-0.2-0.3-0.3-0.7-0.3-1.3v-0.2c0-0.7,0.1-1.2,0.3-1.5
						c0.2-0.3,0.6-0.5,1.1-0.5c0.4,0,0.7,0.2,1,0.5c0.2,0.3,0.3,0.8,0.3,1.4c0,0.6-0.1,1.1-0.3,1.4S184.1,59.4,183.6,59.4z"/>
					<path class="st1" d="M191,54.7l-0.2,0.8h0c-0.3-0.3-0.5-0.6-0.8-0.7c-0.3-0.1-0.6-0.2-1.1-0.2c-0.6,0-1,0.1-1.3,0.4
						c-0.3,0.3-0.5,0.7-0.5,1.3c0,0.6,0.2,1,0.6,1.3c0.4,0.3,1.1,0.5,2,0.5l1,0v0.3c0,0.4-0.1,0.6-0.3,0.8c-0.2,0.2-0.4,0.3-0.8,0.3
						c-0.3,0-0.6,0-0.8-0.1c-0.3-0.1-0.5-0.2-0.8-0.3l-0.4,0.9c0.3,0.2,0.6,0.3,1,0.4c0.4,0.1,0.7,0.1,1,0.1c0.7,0,1.3-0.2,1.6-0.5
						c0.4-0.3,0.5-0.8,0.5-1.5v-3.8H191z M189.2,55.5c0.4,0,0.8,0.1,1,0.4c0.3,0.2,0.4,0.6,0.4,1v0.5l-0.7,0c-0.6,0-1-0.1-1.2-0.3
						c-0.3-0.2-0.4-0.4-0.4-0.8c0-0.3,0.1-0.4,0.2-0.6S188.9,55.5,189.2,55.5z"/>
					<path class="st1" d="M198.2,54.7H197v3.5c0,0.4-0.1,0.8-0.3,1c-0.2,0.2-0.5,0.3-0.8,0.3c-0.5,0-0.9-0.1-1.1-0.4
						c-0.2-0.3-0.4-0.8-0.4-1.5v-2.8h-1.2v5.6h0.9l0.2-0.7h0.1c0.2,0.3,0.4,0.5,0.7,0.6c0.3,0.1,0.7,0.2,1,0.2c1.3,0,2-0.7,2-2.1
						V54.7z"/>
					<path class="st1" d="M199,60.3h1.3l1.1-3.2c0.2-0.5,0.3-0.9,0.3-1.3h0c0,0.2,0.1,0.4,0.2,0.7c0.1,0.3,0.5,1.5,1.3,3.8h1.3
						l-2.4-6.4c-0.4-1.2-1.2-1.8-2.2-1.8c-0.3,0-0.5,0-0.8,0.1v0.9c0.2,0,0.4-0.1,0.6-0.1c0.6,0,1,0.3,1.2,1l0.2,0.5L199,60.3z"/>
				</g>
				<g>
					<g>
						<path class="st1" d="M210.9,84.5c1.3,0,2.4-1.1,2.4-2.4c0-1.4-1.1-2.4-2.4-2.4c-1.3,0-2.4,1.1-2.4,2.4
							C208.4,83.4,209.5,84.5,210.9,84.5L210.9,84.5z M210.9,84.1c-1.1,0-1.9-0.9-1.9-2.1c0-1.2,0.9-2.1,2-2.1
							c1.1,0,1.9,0.9,1.9,2.1C212.8,83.2,211.9,84.1,210.9,84.1L210.9,84.1z M210.4,80.7H210v2.7c0.2,0,0.4,0.1,0.8,0.1
							c0.4,0,0.7-0.1,0.8-0.2c0.2-0.1,0.2-0.3,0.2-0.6c0-0.4-0.2-0.6-0.5-0.7v0c0.2,0,0.4-0.3,0.5-0.7c0.1-0.4,0.1-0.6,0.2-0.7h-0.5
							c-0.1,0.1-0.1,0.3-0.2,0.7c-0.1,0.3-0.2,0.5-0.6,0.5h-0.3V80.7z M210.4,82.2h0.3c0.4,0,0.7,0.1,0.7,0.5c0,0.2-0.2,0.5-0.7,0.5
							c-0.1,0-0.2,0-0.3,0V82.2z"/>
					</g>
					<path class="st1" d="M74.9,66.6c-2.8,0-5,1.4-6.4,3.6V54.8h-4.5v30.9h4.5v-3.1c1.3,2.2,3.5,3.7,6.3,3.7c5.6,0,9.1-4.7,9.1-9.8
						C83.9,71.3,80.3,66.6,74.9,66.6z M73.9,82.4c-3.2,0-5.4-2.7-5.4-5.9c0-3.3,2.1-6.1,5.4-6.1c3.2,0,5.4,2.7,5.4,6
						C79.4,79.8,77.1,82.4,73.9,82.4z"/>
					<path class="st1" d="M96.2,86.3c6.2,0,9.3-4.7,9.3-9.9c0-0.3,0-0.8-0.1-1.1H91.1c0-3.3,2.7-5.4,6-5.4c2.3,0,4.2,1,5.8,2.3
						l2.3-2.4c-1.8-1.6-4.2-3.3-8.6-3.3c-6.6,0-10,4.7-10,9.9C86.5,81.6,90,86.3,96.2,86.3z M91.1,78h10.2c-0.2,2.7-2.3,5.1-5.1,5.1
						C93.3,83.1,91.3,80.7,91.1,78z"/>
					<path class="st1" d="M113.2,67.3h-4.5v18.4h4.5v-2.5c0.9,1.7,3,3.1,5.5,3.1c5.5,0,7.7-3.5,7.7-9v-10h-4.4v10
						c0,3.7-1.7,5.3-4.3,5.3c-2.4,0-4.3-1.6-4.4-5.2V67.3z"/>
					<path class="st1" d="M131.7,78.3V82h-2.6v3.7h2.6V92h4.5v-6.2h3.9V82h-3.9v-3.6c0-5.9,0.3-7.8,2.4-7.8c0.4,0,0.9,0.1,1.3,0.2
						l0.5-3.4c-1.3-0.4-2.3-0.7-3.1-0.7C131.7,66.8,131.7,70.7,131.7,78.3z"/>
					<path class="st1" d="M151.8,86.3c2.8,0,5-1.5,6.4-3.7v3.1h4.4V67.3h-4.4v2.9c-1.3-2.2-3.5-3.7-6.3-3.7c-5.6,0-9.1,4.7-9.1,9.8
						C142.8,81.5,146.3,86.3,151.8,86.3z M152.8,70.5c3.2,0,5.4,2.8,5.4,6c0,3.2-2.2,6-5.4,6c-3.2,0-5.4-2.8-5.4-6
						C147.3,73.1,149.5,70.5,152.8,70.5z"/>
					<path class="st1" d="M171,67.3h-4.5v34.8h4.5V83.2c1,1.7,3,3.1,5.5,3.1c5.5,0,7.8-3.5,7.8-9v-10h-4.5v10c0,3.7-1.7,5.3-4.3,5.3
						c-2.4,0-4.4-1.6-4.4-5.2V67.3z"/>
					<path class="st1" d="M187,76.5c0,5.2,3.4,9.8,9.9,9.8c6.6,0,9.9-4.6,9.9-9.8c0-5.2-3.4-9.8-9.9-9.8
						C190.3,66.7,187,71.4,187,76.5z M202.3,76.5c0,3.9-2.4,6.5-5.5,6.5c-3,0-5.4-2.6-5.4-6.5c0-4,2.3-6.6,5.4-6.6
						S202.3,72.5,202.3,76.5z"/>
					<g>
						<g>
							<path class="st2" d="M23.3,87.6c-2.1,0-4.2-0.4-6.3-1.1c-4.9-2-8.6-5.8-10.4-10.7c-2-5.3-1.6-11.4,1-16.8
								c4.1-7.6,11.7-12.1,20.5-12.1c4.2,0,8.5,1.1,12.4,3.2C47,53.8,51.4,60,53,67.4c1.6,7.7-0.1,16-4.9,22.6
								c-5.8,7.7-14.7,12.2-24.5,12.2c-11,0-21-5.5-26.8-14.7c-0.6-0.9-1.3-2.1-1.6-3.2c-0.1-0.2-0.2-0.7,0-1
								c0.2-0.2,0.6-0.3,0.7-0.3h0c0.5,0,1,0.5,1.6,1.5c3.4,4.8,7.3,8.3,11.8,10.7c4,2.1,8.6,3.1,13.1,3.1
								c10.7,0,19.9-5.8,24.1-15.2c2.4-5.9,2.4-12.6-0.1-18.2c-2.3-5.2-6.4-9.1-11.7-11c-2-0.7-4-1-6.1-1c-8,0-14.5,4.9-16.2,12.1
								c-0.8,3.9,0.2,8.2,2.5,11.1c1.4,1.7,3.9,3.8,7.8,3.9c2.5,0,5-1.2,6.4-3c1.1-1.3,1.4-2.9,1.1-4.5c-0.3-1.2-1.6-2.7-2.7-2.7
								c-0.3,0-0.6,0.1-0.9,0.3c-0.2,0.2-0.3,0.5-0.3,0.9c-0.1,0.7-0.2,1.7-1.6,2.2c-0.3,0.1-0.6,0.1-0.9,0.1c-2,0-3.4-1.9-3.8-3.8
								c-0.2-1.8,0.3-3.6,1.5-5c1.5-1.7,4-2.8,6.6-2.8c0.2,0,0.4,0,0.7,0c3.1,0.4,5.8,2,7.5,4.6c2,3,2.6,7.1,1.6,10.9
								C36.1,83.5,30.3,87.6,23.3,87.6z"/>
						</g>
					</g>
				</g>
			</g>
		</g>
	</g>
</g>
</svg>
