<?xml version="1.0" encoding="utf-8"?>
<!-- Generator: Adobe Illustrator 18.1.1, SVG Export Plug-In . SVG Version: 6.00 Build 0)  -->
<svg version="1.1" id="Layer_1" xmlns="http://www.w3.org/2000/svg" xmlns:xlink="http://www.w3.org/1999/xlink" x="0px" y="0px"
	 width="303.3px" height="100px" viewBox="141 -39 303.3 100" enable-background="new 141 -39 303.3 100" xml:space="preserve">
<g>
	<g>
		<path fill="#005DA7" d="M160.4,40.1l-16-39.6h-0.2c0.2,2.4,0.2,4.9,0.2,7.4v32.1h-2.9V-2.7h4.6L161.4,35h0.2l15.2-37.7h4.5v42.8
			h-3V7.7c0-2.3,0.1-4.6,0.4-7h-0.2l-16,39.5H160.4z"/>
		<path fill="#005DA7" d="M210,40.1l-0.7-5H209c-1.6,2.1-3.2,3.5-4.9,4.4s-3.7,1.3-6,1.3c-3.1,0-5.6-0.8-7.3-2.4
			c-1.7-1.6-2.6-3.8-2.6-6.7c0-3.1,1.3-5.5,3.9-7.2c2.6-1.7,6.3-2.6,11.2-2.7l6.1-0.2v-2.1c0-3-0.6-5.3-1.8-6.9
			c-1.2-1.5-3.2-2.3-5.9-2.3c-2.9,0-6,0.8-9.2,2.5l-1.1-2.5c3.5-1.6,7-2.5,10.4-2.5c3.5,0,6.1,0.9,7.8,2.7c1.7,1.8,2.6,4.6,2.6,8.5
			v21.2L210,40.1L210,40.1z M198.3,38.1c3.4,0,6.1-1,8-2.9s2.9-4.6,2.9-8.1v-3.1l-5.6,0.2c-4.5,0.2-7.7,0.9-9.6,2.1
			c-1.9,1.2-2.9,3-2.9,5.5c0,2,0.6,3.5,1.8,4.6C194.3,37.5,196,38.1,198.3,38.1z"/>
		<path fill="#005DA7" d="M233,7.7c1.3,0,2.8,0.1,4.3,0.4l-0.6,2.8c-1.3-0.3-2.7-0.5-4.1-0.5c-2.7,0-4.9,1.2-6.7,3.5
			c-1.7,2.3-2.6,5.2-2.6,8.7v17.6h-2.9V8.3h2.5l0.3,5.7h0.2c1.3-2.3,2.7-4,4.2-4.9C229.1,8.1,230.9,7.7,233,7.7z"/>
		<path fill="#005DA7" d="M244.7,26.1l16.3-17.9h3.5l-12.5,13.6l13.6,18.3H262L249.9,24l-5.2,4.7v11.3h-2.9V-5.5h2.9v22.9l-0.2,8.8
			L244.7,26.1L244.7,26.1z"/>
		<path fill="#005DA7" d="M281.7,40.7c-4.6,0-8.2-1.4-10.8-4.3c-2.6-2.9-3.9-6.8-3.9-12c0-5.1,1.3-9.1,3.8-12.2
			c2.5-3.1,5.9-4.6,10.1-4.6c3.8,0,6.7,1.3,8.9,3.9c2.2,2.6,3.3,6.2,3.3,10.7v2.3h-22.9c0,4.4,1.1,7.7,3.1,10c2,2.3,4.9,3.5,8.6,3.5
			c1.8,0,3.4-0.1,4.8-0.4c1.4-0.3,3.1-0.8,5.2-1.6v2.6c-1.8,0.8-3.5,1.3-5,1.6S283.6,40.7,281.7,40.7z M280.9,10.2
			c-3.1,0-5.5,1-7.4,3c-1.9,2-2.9,4.9-3.3,8.7h19.7c0-3.7-0.8-6.6-2.4-8.7C285.9,11.3,283.7,10.2,280.9,10.2z"/>
		<path fill="#005DA7" d="M308.2,38.1c1.8,0,3.4-0.2,4.8-0.5V40c-1.4,0.5-3,0.7-4.9,0.7c-2.8,0-4.9-0.8-6.2-2.3
			c-1.3-1.5-2-3.9-2-7.1V10.8h-4.7V9.1l4.7-1.3l1.5-7.2h1.5v7.7h9.3v2.5h-9.3V31c0,2.4,0.4,4.2,1.3,5.4S306.4,38.1,308.2,38.1z"/>
		<path fill="#005DA7" d="M331.6,40.7c-4.9,0-8.5-1.8-10.7-5.5h-0.2l0.1,2.5c0.1,1.4,0.1,3,0.1,4.7v12.1h-2.9V8.3h2.5l0.6,4.5h0.2
			c2.2-3.4,5.7-5.2,10.5-5.2c4.3,0,7.6,1.4,9.8,4.2c2.3,2.8,3.4,6.9,3.4,12.3c0,5.2-1.2,9.3-3.6,12.2
			C338.9,39.3,335.7,40.7,331.6,40.7z M331.5,38.1c3.3,0,5.8-1.2,7.6-3.6c1.8-2.4,2.7-5.8,2.7-10.2c0-9.4-3.4-14-10.1-14
			c-3.7,0-6.4,1-8.2,3.1s-2.6,5.4-2.6,10v0.9c0,5,0.8,8.5,2.5,10.7S327.7,38.1,331.5,38.1z"/>
		<path fill="#005DA7" d="M354.6,40.1h-2.9V-5.5h2.9V40.1z"/>
		<path fill="#005DA7" d="M382.6,40.1l-0.7-5h-0.2c-1.6,2.1-3.2,3.5-4.9,4.4s-3.7,1.3-6,1.3c-3.1,0-5.6-0.8-7.3-2.4
			c-1.7-1.6-2.6-3.8-2.6-6.7c0-3.1,1.3-5.5,3.9-7.2s6.3-2.6,11.2-2.7l6.1-0.2v-2.1c0-3-0.6-5.3-1.8-6.9c-1.2-1.5-3.2-2.3-5.9-2.3
			c-2.9,0-6,0.8-9.2,2.5l-1.1-2.5c3.5-1.6,7-2.5,10.4-2.5c3.5,0,6.1,0.9,7.8,2.7s2.6,4.6,2.6,8.5v21.2L382.6,40.1L382.6,40.1z
			 M370.9,38.1c3.4,0,6.1-1,8-2.9s2.9-4.6,2.9-8.1v-3.1l-5.6,0.2c-4.5,0.2-7.7,0.9-9.6,2.1c-1.9,1.2-2.9,3-2.9,5.5
			c0,2,0.6,3.5,1.8,4.6S368.6,38.1,370.9,38.1z"/>
		<path fill="#005DA7" d="M405.8,40.7c-4.6,0-8.1-1.4-10.7-4.3s-3.9-6.9-3.9-12c0-5.3,1.3-9.4,4-12.3s6.3-4.4,11-4.4
			c2.8,0,5.4,0.5,7.9,1.4l-0.8,2.6c-2.8-0.9-5.1-1.4-7.2-1.4c-3.9,0-6.9,1.2-8.9,3.6s-3,5.9-3,10.4c0,4.3,1,7.7,3,10.1
			s4.8,3.6,8.4,3.6c2.9,0,5.6-0.5,8.1-1.6v2.7C411.7,40.2,409.1,40.7,405.8,40.7z"/>
		<path fill="#005DA7" d="M432.5,40.7c-4.6,0-8.2-1.4-10.8-4.3s-3.9-6.8-3.9-12c0-5.1,1.3-9.1,3.8-12.2s5.9-4.6,10.1-4.6
			c3.8,0,6.7,1.3,8.9,3.9s3.3,6.2,3.3,10.7v2.3h-22.9c0,4.4,1.1,7.7,3.1,10s4.9,3.5,8.6,3.5c1.8,0,3.4-0.1,4.8-0.4s3.1-0.8,5.2-1.6
			v2.6c-1.8,0.8-3.5,1.3-5,1.6S434.3,40.7,432.5,40.7z M431.6,10.2c-3.1,0-5.5,1-7.4,3s-2.9,4.9-3.3,8.7h19.7c0-3.7-0.8-6.6-2.4-8.7
			S434.4,10.2,431.6,10.2z"/>
	</g>
</g>
</svg>
