<?xml version="1.0" encoding="utf-8"?>
<!-- Generator: Adobe Illustrator 16.0.0, SVG Export Plug-In . SVG Version: 6.00 Build 0)  -->
<!DOCTYPE svg PUBLIC "-//W3C//DTD SVG 1.1//EN" "http://www.w3.org/Graphics/SVG/1.1/DTD/svg11.dtd">
<svg version="1.1" id="Layer_1" xmlns="http://www.w3.org/2000/svg" xmlns:xlink="http://www.w3.org/1999/xlink" x="0px" y="0px"
	 width="303.334px" height="100px" viewBox="0 0 303.334 100" enable-background="new 0 0 303.334 100" xml:space="preserve">
<g>
	<g>
		<path fill="#005DA7" d="M19.427,79.124L3.46,39.573H3.226c0.156,2.422,0.234,4.903,0.234,7.441v32.109H0.589V36.292h4.629
			l15.176,37.676h0.176l15.176-37.676h4.512v42.832H37.24V46.663c0-2.266,0.117-4.609,0.352-7.031h-0.234L21.332,79.124H19.427z"/>
		<path fill="#005DA7" d="M68.98,79.124l-0.732-5.039h-0.234c-1.602,2.051-3.248,3.501-4.937,4.351
			c-1.689,0.85-3.687,1.274-5.991,1.274c-3.125,0-5.557-0.801-7.295-2.402c-1.739-1.602-2.607-3.818-2.607-6.65
			c0-3.105,1.293-5.518,3.882-7.236c2.588-1.719,6.333-2.627,11.235-2.725l6.064-0.176v-2.109c0-3.027-0.615-5.313-1.846-6.855
			c-1.23-1.542-3.213-2.314-5.947-2.314c-2.949,0-6.006,0.82-9.17,2.461l-1.084-2.52c3.496-1.641,6.953-2.461,10.371-2.461
			c3.496,0,6.108,0.908,7.837,2.725s2.593,4.648,2.593,8.496v21.182H68.98z M57.262,77.073c3.398,0,6.079-0.972,8.042-2.915
			s2.944-4.644,2.944-8.101v-3.135l-5.566,0.234c-4.473,0.215-7.661,0.913-9.565,2.095s-2.856,3.022-2.856,5.522
			c0,1.992,0.61,3.54,1.831,4.644C53.311,76.521,55.035,77.073,57.262,77.073z"/>
		<path fill="#005DA7" d="M91.991,46.663c1.348,0,2.793,0.137,4.336,0.41l-0.557,2.783c-1.329-0.332-2.706-0.498-4.131-0.498
			c-2.715,0-4.941,1.153-6.68,3.457c-1.739,2.305-2.607,5.215-2.607,8.73v17.578h-2.9V47.278h2.461l0.293,5.742h0.205
			c1.308-2.344,2.705-3.989,4.189-4.937C88.084,47.137,89.881,46.663,91.991,46.663z"/>
		<path fill="#005DA7" d="M103.663,65.149l16.26-17.871h3.516l-12.539,13.594l13.623,18.252h-3.486l-12.1-16.084l-5.215,4.746
			v11.338h-2.9V33.538h2.9V56.39l-0.205,8.76H103.663z"/>
		<path fill="#005DA7" d="M140.736,79.71c-4.629,0-8.237-1.426-10.825-4.277c-2.588-2.852-3.882-6.846-3.882-11.982
			c0-5.078,1.25-9.146,3.75-12.202c2.5-3.057,5.869-4.585,10.107-4.585c3.75,0,6.709,1.309,8.877,3.926s3.251,6.172,3.251,10.664
			v2.344h-22.939c0.039,4.375,1.059,7.715,3.062,10.02c2.002,2.305,4.868,3.457,8.599,3.457c1.816,0,3.413-0.127,4.79-0.381
			s3.12-0.801,5.229-1.641v2.637c-1.797,0.781-3.457,1.313-4.98,1.597S142.571,79.71,140.736,79.71z M139.886,49.241
			c-3.066,0-5.527,1.011-7.383,3.032c-1.856,2.021-2.94,4.937-3.252,8.745h19.688c0-3.691-0.801-6.577-2.402-8.657
			C144.935,50.281,142.718,49.241,139.886,49.241z"/>
		<path fill="#005DA7" d="M167.232,77.132c1.836,0,3.438-0.156,4.805-0.469v2.344c-1.406,0.469-3.027,0.703-4.863,0.703
			c-2.813,0-4.888-0.752-6.226-2.256s-2.007-3.867-2.007-7.09V49.798h-4.717v-1.699l4.717-1.318l1.465-7.207h1.494v7.705h9.346v2.52
			H161.9v20.156c0,2.441,0.43,4.248,1.289,5.42S165.396,77.132,167.232,77.132z"/>
		<path fill="#005DA7" d="M190.564,79.71c-4.902,0-8.477-1.836-10.723-5.508h-0.205l0.088,2.461
			c0.078,1.445,0.117,3.027,0.117,4.746v12.129h-2.9v-46.26h2.461l0.557,4.541h0.176c2.188-3.438,5.684-5.156,10.488-5.156
			c4.297,0,7.573,1.411,9.829,4.233s3.384,6.929,3.384,12.319c0,5.234-1.187,9.292-3.56,12.173S194.666,79.71,190.564,79.71z
			 M190.506,77.132c3.262,0,5.786-1.211,7.573-3.633s2.681-5.811,2.681-10.166c0-9.355-3.379-14.033-10.137-14.033
			c-3.711,0-6.436,1.021-8.174,3.062c-1.738,2.041-2.607,5.366-2.607,9.976v0.938c0,4.98,0.835,8.535,2.505,10.664
			S186.736,77.132,190.506,77.132z"/>
		<path fill="#005DA7" d="M213.575,79.124h-2.9V33.538h2.9V79.124z"/>
		<path fill="#005DA7" d="M241.595,79.124l-0.732-5.039h-0.234c-1.602,2.051-3.247,3.501-4.937,4.351s-3.687,1.274-5.991,1.274
			c-3.125,0-5.557-0.801-7.295-2.402s-2.607-3.818-2.607-6.65c0-3.105,1.294-5.518,3.882-7.236s6.333-2.627,11.235-2.725
			l6.064-0.176v-2.109c0-3.027-0.615-5.313-1.846-6.855c-1.23-1.542-3.213-2.314-5.947-2.314c-2.949,0-6.006,0.82-9.17,2.461
			l-1.084-2.52c3.496-1.641,6.953-2.461,10.371-2.461c3.496,0,6.108,0.908,7.837,2.725s2.593,4.648,2.593,8.496v21.182H241.595z
			 M229.876,77.073c3.398,0,6.079-0.972,8.042-2.915s2.944-4.644,2.944-8.101v-3.135l-5.566,0.234
			c-4.473,0.215-7.661,0.913-9.565,2.095s-2.856,3.022-2.856,5.522c0,1.992,0.61,3.54,1.831,4.644S227.649,77.073,229.876,77.073z"
			/>
		<path fill="#005DA7" d="M264.781,79.71c-4.551,0-8.115-1.436-10.693-4.307s-3.867-6.875-3.867-12.012
			c0-5.273,1.338-9.38,4.014-12.319s6.338-4.409,10.986-4.409c2.754,0,5.391,0.479,7.91,1.436l-0.791,2.578
			c-2.754-0.918-5.146-1.377-7.178-1.377c-3.906,0-6.865,1.206-8.877,3.618s-3.018,5.884-3.018,10.415
			c0,4.297,1.006,7.661,3.018,10.093s4.824,3.647,8.438,3.647c2.891,0,5.576-0.518,8.057-1.553v2.695
			C270.748,79.212,268.082,79.71,264.781,79.71z"/>
		<path fill="#005DA7" d="M291.453,79.71c-4.629,0-8.237-1.426-10.825-4.277s-3.882-6.846-3.882-11.982
			c0-5.078,1.25-9.146,3.75-12.202s5.869-4.585,10.107-4.585c3.75,0,6.709,1.309,8.877,3.926s3.252,6.172,3.252,10.664v2.344
			h-22.939c0.039,4.375,1.06,7.715,3.062,10.02s4.868,3.457,8.599,3.457c1.816,0,3.413-0.127,4.79-0.381s3.12-0.801,5.229-1.641
			v2.637c-1.797,0.781-3.457,1.313-4.98,1.597S293.289,79.71,291.453,79.71z M290.604,49.241c-3.066,0-5.527,1.011-7.383,3.032
			s-2.939,4.937-3.252,8.745h19.688c0-3.691-0.801-6.577-2.402-8.657S293.436,49.241,290.604,49.241z"/>
	</g>
</g>
<g>
	<g>
		<path fill="#005DA7" d="M218.155,89.979c0,1.242-0.422,2.194-1.266,2.856s-2.039,0.993-3.586,0.993h-1.986v5.309h-0.896v-12.85
			h3.146C216.626,86.288,218.155,87.519,218.155,89.979z M211.317,93.056h1.767c1.447,0,2.493-0.238,3.138-0.716
			s0.967-1.253,0.967-2.325c0-0.99-0.305-1.724-0.914-2.202c-0.609-0.477-1.553-0.716-2.83-0.716h-2.127V93.056z"/>
		<path fill="#005DA7" d="M222.62,89.584v6.188c0,0.961,0.202,1.66,0.606,2.096c0.404,0.438,1.031,0.655,1.881,0.655
			c1.137,0,1.974-0.287,2.51-0.861s0.804-1.509,0.804-2.804v-5.273h0.861v9.554h-0.738l-0.158-1.318h-0.053
			c-0.621,0.996-1.726,1.494-3.313,1.494c-2.174,0-3.261-1.163-3.261-3.489v-6.24H222.62z"/>
		<path fill="#005DA7" d="M237.649,89.399c1.336,0,2.343,0.421,3.02,1.261c0.677,0.842,1.015,2.07,1.015,3.688
			c0,1.588-0.355,2.813-1.067,3.674s-1.713,1.292-3.002,1.292c-0.68,0-1.292-0.141-1.837-0.422s-0.976-0.68-1.292-1.195h-0.079
			l-0.246,1.441h-0.545V85.462h0.87v3.437c0,0.516-0.012,0.99-0.035,1.424l-0.026,0.747h0.062c0.363-0.574,0.802-0.996,1.314-1.266
			S236.929,89.399,237.649,89.399z M237.632,90.19c-1.125,0-1.931,0.322-2.417,0.967s-0.729,1.708-0.729,3.19v0.149
			c0,1.441,0.254,2.476,0.761,3.103s1.296,0.94,2.368,0.94c1.043,0,1.828-0.364,2.355-1.095c0.527-0.729,0.791-1.768,0.791-3.115
			C240.761,91.57,239.718,90.19,237.632,90.19z"/>
		<path fill="#005DA7" d="M246.334,99.138h-0.87V85.462h0.87V99.138z"/>
		<path fill="#005DA7" d="M250.544,86.93c0-0.563,0.185-0.844,0.554-0.844c0.182,0,0.323,0.073,0.426,0.22s0.154,0.354,0.154,0.624
			c0,0.264-0.052,0.472-0.154,0.624s-0.244,0.229-0.426,0.229C250.729,87.782,250.544,87.498,250.544,86.93z M251.537,99.138h-0.87
			v-9.554h0.87V99.138z"/>
		<path fill="#005DA7" d="M259.685,99.313c-1.365,0-2.435-0.431-3.208-1.292s-1.16-2.063-1.16-3.604
			c0-1.582,0.401-2.813,1.204-3.695s1.901-1.323,3.296-1.323c0.826,0,1.617,0.144,2.373,0.431l-0.237,0.773
			c-0.826-0.275-1.544-0.413-2.153-0.413c-1.172,0-2.06,0.362-2.663,1.085c-0.604,0.725-0.905,1.766-0.905,3.125
			c0,1.289,0.302,2.299,0.905,3.027c0.604,0.73,1.447,1.095,2.531,1.095c0.867,0,1.673-0.155,2.417-0.466v0.809
			C261.475,99.164,260.675,99.313,259.685,99.313z"/>
		<path fill="#005DA7" d="M277.29,96.65c0,0.855-0.325,1.514-0.976,1.973c-0.65,0.461-1.573,0.69-2.769,0.69
			c-1.278,0-2.292-0.196-3.041-0.589v-0.94c0.96,0.48,1.974,0.721,3.041,0.721c0.942,0,1.659-0.156,2.148-0.47
			s0.734-0.731,0.734-1.253c0-0.48-0.195-0.885-0.585-1.213s-1.03-0.65-1.92-0.967c-0.956-0.346-1.626-0.643-2.013-0.892
			s-0.679-0.53-0.875-0.844s-0.294-0.696-0.294-1.147c0-0.715,0.3-1.28,0.9-1.696s1.439-0.624,2.519-0.624
			c1.03,0,2.009,0.193,2.936,0.58l-0.325,0.791c-0.938-0.387-1.809-0.58-2.61-0.58c-0.78,0-1.397,0.129-1.854,0.387
			s-0.686,0.615-0.686,1.072c0,0.498,0.177,0.896,0.531,1.195s1.047,0.633,2.079,1.002c0.861,0.311,1.487,0.591,1.881,0.839
			c0.392,0.25,0.687,0.532,0.883,0.849S277.29,96.223,277.29,96.65z"/>
		<path fill="#005DA7" d="M280.762,86.93c0-0.563,0.185-0.844,0.554-0.844c0.182,0,0.323,0.073,0.426,0.22s0.154,0.354,0.154,0.624
			c0,0.264-0.052,0.472-0.154,0.624s-0.244,0.229-0.426,0.229C280.946,87.782,280.762,87.498,280.762,86.93z M281.755,99.138h-0.87
			v-9.554h0.87V99.138z"/>
		<path fill="#005DA7" d="M288.61,98.54c0.551,0,1.031-0.047,1.441-0.141v0.703c-0.422,0.141-0.908,0.211-1.459,0.211
			c-0.844,0-1.467-0.226-1.868-0.677s-0.602-1.16-0.602-2.127v-6.17h-1.415v-0.51l1.415-0.396l0.439-2.162h0.448v2.312h2.804v0.756
			h-2.804v6.047c0,0.732,0.129,1.274,0.387,1.626S288.06,98.54,288.61,98.54z"/>
		<path fill="#005DA7" d="M297.109,99.313c-1.389,0-2.471-0.428-3.247-1.283s-1.165-2.054-1.165-3.595
			c0-1.523,0.375-2.743,1.125-3.66s1.761-1.376,3.032-1.376c1.125,0,2.013,0.393,2.663,1.178s0.976,1.852,0.976,3.199v0.703h-6.882
			c0.012,1.313,0.318,2.314,0.919,3.006s1.46,1.037,2.579,1.037c0.545,0,1.024-0.038,1.438-0.114s0.936-0.24,1.568-0.492v0.791
			c-0.539,0.234-1.037,0.395-1.494,0.479C298.164,99.271,297.66,99.313,297.109,99.313z M296.854,90.173
			c-0.92,0-1.658,0.304-2.215,0.909c-0.557,0.607-0.882,1.481-0.976,2.624h5.906c0-1.107-0.24-1.974-0.721-2.597
			C298.369,90.484,297.704,90.173,296.854,90.173z"/>
	</g>
</g>
<g>
	<g>
		<g>
			<g>
				<g>
					<rect x="0.463" y="1.864" fill-rule="evenodd" clip-rule="evenodd" fill="#FFCB05" width="111.801" height="6.421"/>
				</g>
				<g>
					<g>
						<polygon fill="#9ECFDD" points="133.644,1.864 146.75,1.864 146.75,8.285 133.644,8.285 133.644,1.864 						"/>
						<path fill="#9ECFDD" d="M140.197,5.075"/>
					</g>
				</g>
				<g>
					<g>
						<polygon fill="#99B8DA" points="151.797,1.864 165.057,1.864 165.057,8.285 151.797,8.285 151.797,1.864 						"/>
						<path fill="#99B8DA" d="M158.428,5.075"/>
					</g>
				</g>
				<g>
					<g>
						<polygon fill="#E74067" points="163.074,1.864 174.002,1.864 174.002,8.285 163.074,8.285 163.074,1.864 						"/>
						<path fill="#E74067" d="M168.537,5.075"/>
					</g>
				</g>
				<g>
					<g>
						<polygon fill="#CEA7CE" points="170.277,1.864 177.004,1.864 177.004,8.285 170.277,8.285 170.277,1.864 						"/>
						<path fill="#CEA7CE" d="M173.641,5.075"/>
					</g>
				</g>
			</g>
			<g>
				<g>
					<polygon fill="#E96887" points="112.471,1.864 132.65,1.864 132.65,8.285 112.471,8.285 112.471,1.864 					"/>
					<path fill="#E96887" d="M122.561,5.075"/>
				</g>
			</g>
		</g>
		<g>
			<g>
				<polygon fill="#AF8FB0" points="176.873,1.864 180.869,1.864 180.869,8.285 176.873,8.285 176.873,1.864 				"/>
				<path fill="#AF8FB0" d="M178.871,5.075"/>
			</g>
		</g>
		<g>
			<g>
				<polygon fill="#D9D9E6" points="180.639,1.864 186.912,1.864 186.912,8.285 180.639,8.285 180.639,1.864 				"/>
				<path fill="#D9D9E6" d="M183.775,5.075"/>
			</g>
		</g>
	</g>
	<g>
		<g>
			<polygon fill="#005DA7" points="186.236,1.864 188.953,1.864 188.953,8.285 186.236,8.285 186.236,1.864 			"/>
			<path fill="#005DA7" d="M187.596,5.075"/>
		</g>
	</g>
	<g>
		<g>
			<polygon fill="#A8D7CB" points="200.078,1.864 203.43,1.864 203.43,8.285 200.078,8.285 200.078,1.864 			"/>
			<path fill="#A8D7CB" d="M201.754,5.075"/>
		</g>
	</g>
	<g>
		<g>
			<polygon fill="#FFFFFF" points="161.465,0 163.115,0 163.115,9.559 161.465,9.559 161.465,0 			"/>
			<path fill="#FFFFFF" d="M162.289,4.78"/>
		</g>
	</g>
	<g>
		<g>
			<polygon fill="#FFFFFF" points="169.139,0 170.789,0 170.789,9.559 169.139,9.559 169.139,0 			"/>
			<path fill="#FFFFFF" d="M169.965,4.78"/>
		</g>
	</g>
	<g>
		<g>
			<polygon fill="#FFFFFF" points="176.533,0 178.184,0 178.184,9.559 176.533,9.559 176.533,0 			"/>
			<path fill="#FFFFFF" d="M177.357,4.78"/>
		</g>
	</g>
	<g>
		<g>
			<polygon fill="#FFFFFF" points="132.318,0 133.969,0 133.969,9.559 132.318,9.559 132.318,0 			"/>
			<path fill="#FFFFFF" d="M133.143,4.78"/>
		</g>
	</g>
	<g>
		<g>
			<polygon fill="#FFFFFF" points="185.658,0 187.309,0 187.309,9.559 185.658,9.559 185.658,0 			"/>
			<path fill="#FFFFFF" d="M186.484,4.78"/>
		</g>
	</g>
	<g>
		<g>
			<polygon fill="#FFFFFF" points="179.939,0 181.59,0 181.59,9.559 179.939,9.559 179.939,0 			"/>
			<path fill="#FFFFFF" d="M180.766,4.78"/>
		</g>
	</g>
	<g>
		<g>
			<polygon fill="#FFFFFF" points="111.406,0 113.056,0 113.056,9.559 111.406,9.559 111.406,0 			"/>
			<path fill="#FFFFFF" d="M112.231,4.78"/>
		</g>
	</g>
	<g>
		<g>
			<polygon fill="#9ECFDD" points="190.732,1.864 198.492,1.864 198.492,8.285 190.732,8.285 190.732,1.864 			"/>
			<path fill="#9ECFDD" d="M194.611,5.075"/>
		</g>
	</g>
	<g>
		<g>
			<polygon fill="#C9CAD6" points="146.485,1.864 151.645,1.864 151.645,8.285 146.485,8.285 146.485,1.864 			"/>
			<path fill="#C9CAD6" d="M149.065,5.075"/>
		</g>
	</g>
	<g>
		<g>
			<polygon fill="#FFFFFF" points="145.736,0 147.386,0 147.386,9.559 145.736,9.559 145.736,0 			"/>
			<path fill="#FFFFFF" d="M146.561,4.78"/>
		</g>
	</g>
	<g>
		<g>
			<polygon fill="#FFFFFF" points="151.348,0 152.999,0 152.999,9.559 151.348,9.559 151.348,0 			"/>
			<path fill="#FFFFFF" d="M152.174,4.78"/>
		</g>
	</g>
</g>
</svg>
