<?xml version="1.0" encoding="utf-8"?>
<!-- Generator: Adobe Illustrator 16.0.0, SVG Export Plug-In . SVG Version: 6.00 Build 0)  -->
<!DOCTYPE svg PUBLIC "-//W3C//DTD SVG 1.1//EN" "http://www.w3.org/Graphics/SVG/1.1/DTD/svg11.dtd">
<svg version="1.1" id="Layer_1" xmlns="http://www.w3.org/2000/svg" xmlns:xlink="http://www.w3.org/1999/xlink" x="0px" y="0px"
	 width="68px" height="34px" viewBox="0 0 68 34" enable-background="new 0 0 68 34" xml:space="preserve">
<g>
	<circle fill="#999999" cx="17" cy="17" r="16"/>
	<circle fill="#666666" cx="51" cy="17" r="16"/>
	<ellipse fill="#FFFFFF" cx="12.798" cy="21.653" rx="2.235" ry="2.17"/>
	<path fill="#FFFFFF" d="M10.627,16.437l-0.008-3.156c6.747,0.352,10.491,5.18,10.583,10.629h-3.161
		C17.988,19.12,14.732,16.611,10.627,16.437z"/>
	<path fill="#FFFFFF" d="M10.665,11.173l-0.091-3.207c10.367,0.481,15.918,8.005,15.989,15.943l-3.253-0.045
		C23.452,18.786,19.695,11.323,10.665,11.173z"/>
	<ellipse fill="#FFFFFF" cx="46.798" cy="21.653" rx="2.235" ry="2.17"/>
	<path fill="#FFFFFF" d="M44.627,16.437l-0.008-3.156c6.747,0.352,10.491,5.18,10.583,10.629h-3.161
		C51.988,19.12,48.732,16.611,44.627,16.437z"/>
	<path fill="#FFFFFF" d="M44.665,11.173l-0.091-3.207c10.366,0.481,15.918,8.005,15.988,15.943l-3.253-0.045
		C57.452,18.786,53.695,11.323,44.665,11.173z"/>
</g>
</svg>
