<?xml version="1.0" encoding="utf-8"?>
<!-- Generator: Adobe Illustrator 16.0.0, SVG Export Plug-In . SVG Version: 6.00 Build 0)  -->
<!DOCTYPE svg PUBLIC "-//W3C//DTD SVG 1.1//EN" "http://www.w3.org/Graphics/SVG/1.1/DTD/svg11.dtd">
<svg version="1.1" id="Layer_1" xmlns="http://www.w3.org/2000/svg" xmlns:xlink="http://www.w3.org/1999/xlink" x="0px" y="0px"
	 width="24px" height="48px" viewBox="0 0 24 48" enable-background="new 0 0 24 48" xml:space="preserve">
<g>
	<g>
		<g>
			<polygon fill="none" stroke="#AAAAAA" stroke-width="1.4287" points="2.473,4.988 21.527,4.988 21.527,19.012 2.473,19.012 			
				"/>
			<path fill="none" stroke="#AAAAAA" stroke-width="1.4287" d="M12,12"/>
		</g>
	</g>
	<g>
		<path fill="none" stroke="#AAAAAA" stroke-width="1.4287" d="M2.649,5.167l8.221,8.33c0.609,0.614,1.718,0.607,2.313,0.006
			L21.4,5.234"/>
	</g>
	<g>
		<line fill="none" stroke="#AAAAAA" stroke-width="1.4287" x1="2.932" y1="18.551" x2="9.23" y2="12.112"/>
	</g>
	<g>
		<line fill="none" stroke="#AAAAAA" stroke-width="1.4287" x1="20.996" y1="18.477" x2="14.867" y2="12.202"/>
	</g>
</g>
<g>
	<g>
		<g>
			<polygon fill="none" stroke="#616161" stroke-width="1.4287" points="2.473,28.988 21.527,28.988 21.527,43.014 2.473,43.014 			
				"/>
			<path fill="none" stroke="#616161" stroke-width="1.4287" d="M12,36.001"/>
		</g>
	</g>
	<g>
		<path fill="none" stroke="#616161" stroke-width="1.4287" d="M2.649,29.167l8.221,8.33c0.609,0.614,1.718,0.606,2.313,0.006
			l8.217-8.269"/>
	</g>
	<g>
		<line fill="none" stroke="#616161" stroke-width="1.4287" x1="2.932" y1="42.552" x2="9.23" y2="36.113"/>
	</g>
	<g>
		<line fill="none" stroke="#616161" stroke-width="1.4287" x1="20.996" y1="42.479" x2="14.867" y2="36.202"/>
	</g>
</g>
</svg>
