<?xml version="1.0" encoding="utf-8"?>
<!-- Generator: Adobe Illustrator 16.0.0, SVG Export Plug-In . SVG Version: 6.00 Build 0)  -->
<!DOCTYPE svg PUBLIC "-//W3C//DTD SVG 1.1//EN" "http://www.w3.org/Graphics/SVG/1.1/DTD/svg11.dtd">
<svg version="1.1" id="Layer_1" xmlns="http://www.w3.org/2000/svg" xmlns:xlink="http://www.w3.org/1999/xlink" x="0px" y="0px"
	 width="24px" height="48px" viewBox="0 0 24 48" enable-background="new 0 0 24 48" xml:space="preserve">
<g>
	<g>
		<path fill="#808083" d="M4.296,9.154c0-2.687,2.196-4.887,4.883-4.887h3.415c1.261,0.149,3.096,1.229,3.772,2.665
			c0.186,0.403,0.284,0.466,0.438,1.66c0.084,0.615,0.126,1.069,0.4,1.321c0.387,0.353,1.823,0.115,2.107,0.337l0.217,0.171
			l0.131,0.269l0.045,0.217l-0.03,3.947c-0.015,2.683-2.197,4.878-4.884,4.878H9.179c-2.687,0-4.883-2.195-4.883-4.878V9.154z"/>
		<path fill="#F2F1F1" d="M9.241,15.713h5.502c0.513,0,0.93-0.425,0.93-0.931c0-0.513-0.417-0.929-0.93-0.929H9.241
			c-0.517,0-0.935,0.416-0.935,0.929C8.306,15.288,8.724,15.713,9.241,15.713z"/>
		<path fill="#F2F1F1" d="M9.241,10.127h2.708c0.517,0,0.935-0.424,0.935-0.935c0-0.512-0.418-0.932-0.935-0.932H9.241
			c-0.517,0-0.935,0.42-0.935,0.932C8.306,9.703,8.724,10.127,9.241,10.127z"/>
	</g>
</g>
<g>
	<g>
		<path fill="#005DA7" d="M4.296,33.154c0-2.686,2.196-4.887,4.883-4.887h3.415c1.261,0.15,3.096,1.23,3.772,2.666
			c0.186,0.402,0.284,0.465,0.438,1.66c0.084,0.615,0.126,1.068,0.4,1.32c0.387,0.354,1.823,0.115,2.107,0.338l0.217,0.17
			l0.131,0.27l0.045,0.217l-0.03,3.947c-0.015,2.682-2.197,4.877-4.884,4.877H9.179c-2.687,0-4.883-2.195-4.883-4.877V33.154z"/>
		<path fill="#F2F1F1" d="M9.241,39.713h5.502c0.513,0,0.93-0.424,0.93-0.93c0-0.514-0.417-0.93-0.93-0.93H9.241
			c-0.517,0-0.935,0.416-0.935,0.93C8.306,39.289,8.724,39.713,9.241,39.713z"/>
		<path fill="#F2F1F1" d="M9.241,34.127h2.708c0.517,0,0.935-0.424,0.935-0.934c0-0.512-0.418-0.932-0.935-0.932H9.241
			c-0.517,0-0.935,0.42-0.935,0.932C8.306,33.703,8.724,34.127,9.241,34.127z"/>
	</g>
</g>
</svg>
