<?xml version="1.0" encoding="utf-8"?>
<!-- Generator: Adobe Illustrator 16.0.0, SVG Export Plug-In . SVG Version: 6.00 Build 0)  -->
<!DOCTYPE svg PUBLIC "-//W3C//DTD SVG 1.1//EN" "http://www.w3.org/Graphics/SVG/1.1/DTD/svg11.dtd">
<svg version="1.1" id="Layer_1" xmlns="http://www.w3.org/2000/svg" xmlns:xlink="http://www.w3.org/1999/xlink" x="0px" y="0px"
	 width="24px" height="48px" viewBox="0 0 24 48" enable-background="new 0 0 24 48" xml:space="preserve">
<g>
	<g>
		<circle fill="#AAAAAA" cx="6.354" cy="5.518" r="2.091"/>
	</g>
	<g>
		<path fill="#AAAAAA" d="M9.699,8.863h3.346v0.514c1.324-0.604,3.162-0.545,4.408,0.154c1.322,0.741,2.283,2.396,2.283,3.933v7.109
			h-3.346v-7.109c0-0.335-0.34-0.879-0.574-1.015c-1.324-0.763-2.771,0.635-2.771,0.635v7.489H9.699V8.863z"/>
	</g>
	<g>
		<rect x="4.681" y="8.863" fill="#AAAAAA" width="3.346" height="11.71"/>
	</g>
</g>
<g>
	<g>
		<circle fill="#616161" cx="6.354" cy="29.517" r="2.091"/>
	</g>
	<g>
		<path fill="#616161" d="M9.699,32.863h3.346v0.514c1.324-0.605,3.162-0.546,4.408,0.153c1.322,0.741,2.283,2.396,2.283,3.933
			v7.109h-3.346v-7.109c0-0.334-0.34-0.879-0.574-1.014c-1.324-0.764-2.771,0.635-2.771,0.635v7.488H9.699V32.863z"/>
	</g>
	<g>
		<rect x="4.681" y="32.863" fill="#616161" width="3.346" height="11.709"/>
	</g>
</g>
</svg>
