<?xml version="1.0" encoding="utf-8"?>
<!-- Generator: Adobe Illustrator 16.0.0, SVG Export Plug-In . SVG Version: 6.00 Build 0)  -->
<!DOCTYPE svg PUBLIC "-//W3C//DTD SVG 1.1 Tiny//EN" "http://www.w3.org/Graphics/SVG/1.1/DTD/svg11-tiny.dtd">
<svg version="1.1" baseProfile="tiny" id="Layer_1" xmlns="http://www.w3.org/2000/svg" xmlns:xlink="http://www.w3.org/1999/xlink"
	 x="0px" y="0px" width="24px" height="48px" viewBox="0 0 24 48" xml:space="preserve">
<g>
	<path fill="#808083" d="M20.471,11.74C19.29,19.332,7.268,23.563,0.937,16.341c2.348,1.88,6.137,1.733,8.313-0.951
		c-1.386,0.327-2.527-0.961-0.869-1.855c-1.534,0.304-2.47-0.445-2.883-1.115c0.33-0.412,0.715-0.625,1.486-0.743
		c-1.733-0.253-2.431-1.028-2.712-2.02C4.733,9.503,5.314,9.354,5.638,9.37C4.084,8.723,3.466,7.597,3.471,6.71
		c2.743,0.755,4.504,1.4,5.986,2.034c0.528,0.227,1.134,0.662,1.822,1.222c0.62-2.209,1.427-4.499,3.042-5.742
		c-0.008,0.25-0.119,0.492-0.276,0.697c0.444-0.484,1.05-0.842,1.685-0.986c-0.031,0.488-0.699,0.818-1.104,1.013
		c0.31-0.127,1.925-1.024,2.146-0.613c0.26,0.467-1.1,0.813-1.324,0.917c-0.172,0.075-0.34,0.155-0.506,0.239
		c2.113-0.399,4.307,1.185,5.088,3.316c0.059,0.154,0.115,0.325,0.17,0.506C21,9.536,22.387,9.106,22.816,8.787
		c-0.262,0.808-1.065,1.456-2.318,1.671c0.631,0.2,1.789,0.24,2.566,0.036C22.611,11.075,21.848,11.631,20.471,11.74z"/>
</g>
<g>
	<path fill="#005CA7" d="M20.471,35.74C19.29,43.332,7.268,47.563,0.937,40.342c2.348,1.879,6.137,1.732,8.313-0.951
		c-1.386,0.326-2.527-0.961-0.869-1.854c-1.534,0.304-2.47-0.445-2.883-1.115c0.33-0.412,0.715-0.625,1.486-0.742
		c-1.733-0.254-2.431-1.027-2.712-2.021c0.461-0.153,1.042-0.306,1.366-0.287c-1.554-0.646-2.172-1.771-2.167-2.658
		c2.743,0.755,4.504,1.397,5.986,2.033c0.528,0.229,1.134,0.662,1.822,1.224c0.62-2.21,1.427-4.5,3.042-5.74
		c-0.008,0.25-0.119,0.49-0.276,0.694c0.444-0.481,1.05-0.843,1.685-0.983c-0.031,0.485-0.699,0.815-1.104,1.012
		c0.31-0.127,1.925-1.023,2.146-0.612c0.26,0.468-1.1,0.813-1.324,0.917c-0.172,0.075-0.34,0.154-0.506,0.238
		c2.113-0.398,4.307,1.186,5.088,3.316c0.059,0.151,0.115,0.323,0.17,0.506c0.807,0.223,2.191-0.207,2.621-0.525
		c-0.262,0.809-1.063,1.456-2.316,1.671c0.631,0.2,1.789,0.239,2.564,0.036C22.611,35.075,21.848,35.631,20.471,35.74z"/>
</g>
</svg>
