<?xml version="1.0" encoding="utf-8"?>
<!-- Generator: Adobe Illustrator 16.0.0, SVG Export Plug-In . SVG Version: 6.00 Build 0)  -->
<!DOCTYPE svg PUBLIC "-//W3C//DTD SVG 1.1//EN" "http://www.w3.org/Graphics/SVG/1.1/DTD/svg11.dtd">
<svg version="1.1" id="Layer_1" xmlns="http://www.w3.org/2000/svg" xmlns:xlink="http://www.w3.org/1999/xlink" x="0px" y="0px"
	 width="24px" height="48px" viewBox="0 0 24 48" enable-background="new 0 0 24 48" xml:space="preserve">
<g>
	<path fill="#808083" d="M7.404,9.374h2.626V7.732c0-2.353,1.768-4.268,3.939-4.268h2.626v3.252H13.97
		c-0.31,0-0.656,0.421-0.656,0.985v1.672h3.282v3.263h-3.282v7.899H10.03v-7.899H7.404V9.374z"/>
</g>
<g>
	<path fill="#005DA7" d="M7.404,33.373h2.626v-1.641c0-2.354,1.768-4.268,3.939-4.268h2.626v3.252H13.97
		c-0.31,0-0.656,0.421-0.656,0.984v1.672h3.282v3.264h-3.282v7.898H10.03v-7.898H7.404V33.373z"/>
</g>
</svg>
