<?xml version="1.0" encoding="utf-8"?>
<!-- Generator: Adobe Illustrator 16.0.0, SVG Export Plug-In . SVG Version: 6.00 Build 0)  -->
<!DOCTYPE svg PUBLIC "-//W3C//DTD SVG 1.1//EN" "http://www.w3.org/Graphics/SVG/1.1/DTD/svg11.dtd">
<svg version="1.1" id="Layer_1" xmlns="http://www.w3.org/2000/svg" xmlns:xlink="http://www.w3.org/1999/xlink" x="0px" y="0px"
	 width="70px" height="70px" viewBox="0 0 70 70" enable-background="new 0 0 70 70" xml:space="preserve">
<g display="none">
	<g display="inline">
		<g>
			<circle fill="#A6A8AB" cx="35" cy="35" r="29.658"/>
			<path fill="#A6A8AB" d="M35,35"/>
		</g>
	</g>
	<g display="inline">
		<g>
			<polygon fill="#F2F0F0" points="28.258,25.905 19.096,35.067 28.17,44.141 27.145,45.166 17.002,35.022 27.188,24.835 			"/>
		</g>
		<g>
			<polygon fill="#F2F0F0" points="41.741,44.096 50.904,34.934 41.83,25.86 42.854,24.835 52.998,34.979 42.812,45.166 			"/>
		</g>
		<g>
			<rect x="29.645" y="34.384" fill="#F2F0F0" width="1.23" height="1.232"/>
			
				<rect x="29.645" y="34.384" fill="none" stroke="#F2F0F0" stroke-width="0.6163" stroke-miterlimit="3.8637" width="1.23" height="1.232"/>
		</g>
		<g>
			<rect x="34.384" y="34.384" fill="#F2F0F0" width="1.23" height="1.232"/>
			
				<rect x="34.384" y="34.384" fill="none" stroke="#F2F0F0" stroke-width="0.6163" stroke-miterlimit="3.8637" width="1.23" height="1.232"/>
		</g>
		<g>
			<rect x="39.123" y="34.384" fill="#F2F0F0" width="1.229" height="1.232"/>
			
				<rect x="39.123" y="34.384" fill="none" stroke="#F2F0F0" stroke-width="0.6163" stroke-miterlimit="3.8637" width="1.229" height="1.232"/>
		</g>
	</g>
</g>
<g>
	<g>
		<circle fill="#A6A8AB" cx="35" cy="35" r="29.658"/>
		<path fill="#A6A8AB" d="M35,35"/>
	</g>
	<g>
		<polygon fill="none" stroke="#F2F0F0" stroke-width="1.5" stroke-miterlimit="3.8637" points="51.661,28.67 45.196,22.206 
			26.072,41.33 26.072,47.795 32.536,47.795 		"/>
		
			<line fill="none" stroke="#F2F0F0" stroke-width="1.5" stroke-miterlimit="3.8637" x1="15.934" y1="47.795" x2="22.397" y2="47.795"/>
		
			<line fill="none" stroke="#F2F0F0" stroke-width="1.5" stroke-miterlimit="3.8637" x1="40.728" y1="26.256" x2="47.28" y2="32.809"/>
	</g>
</g>
</svg>
