<svg id="Layer_1" data-name="Layer 1" xmlns="http://www.w3.org/2000/svg" width="48" height="48" viewBox="0 0 48 48"><defs><style>.cls-1{fill:none;}.cls-2{fill:#414141;}</style></defs><title>Artboard 2</title><g id="Tool"><rect id="Rectangle_1007" data-name="Rectangle 1007" class="cls-1" width="48" height="48"/><g id="Union_30" data-name="Union 30"><path class="cls-1" d="M8.32,31.26,18.78,20.81a10,10,0,0,1,2.82-8.49,10.25,10.25,0,0,1,10.85-2.19L28.78,13.8l5.57,5.56L38,15.7a10.49,10.49,0,0,1-2.26,10.77,10,10,0,0,1-8.49,2.82L16.81,39.75Z"/><path class="cls-2" d="M16.81,36.92l9-9,.7-.71,1,.14A7.88,7.88,0,0,0,31.15,27a7.78,7.78,0,0,0,3.18-1.95,8.33,8.33,0,0,0,2.28-5.11l-.84.84-1.42,1.41-1.41-1.41-5.57-5.57L26,13.79l1.42-1.41.91-.91A7.66,7.66,0,0,0,23,13.74a7.78,7.78,0,0,0-1.95,3.18,8,8,0,0,0-.31,3.61l.14,1-.71.7-9,9,5.66,5.66m0,2.83L8.32,31.26,18.78,20.81a10,10,0,0,1,2.83-8.49,10.23,10.23,0,0,1,10.84-2.19l-3.67,3.66,5.57,5.57L38,15.7a10.49,10.49,0,0,1-2.26,10.77,10,10,0,0,1-8.49,2.82Z"/></g></g></svg>